<svg width="44" height="43" viewBox="0 0 44 43" fill="none" xmlns="http://www.w3.org/2000/svg">
<g clip-path="url(#clip0_2077_2)">
<mask id="mask0_2077_2" style="mask-type:luminance" maskUnits="userSpaceOnUse" x="-2" y="1" width="164" height="42">
<path d="M161.155 1H-2V42.16H161.155V1Z" fill="white"/>
</mask>
<g mask="url(#mask0_2077_2)">
<path d="M21.9609 42.16C33.3994 42.16 42.6722 32.946 42.6722 21.58C42.6722 10.214 33.3994 1 21.9609 1C10.5223 1 1.24951 10.214 1.24951 21.58C1.24951 32.946 10.5223 42.16 21.9609 42.16Z" fill="url(#paint0_linear_2077_2)"/>
<path fill-rule="evenodd" clip-rule="evenodd" d="M24.4241 25.0357C24.4241 25.0357 26.6355 25.0223 28.6289 24.0428C35.9818 20.4308 38.572 28.814 33.8989 29.15C33.8989 29.15 32.5903 29.2895 31.7922 27.8732C31.7922 27.8732 33.3409 28.8577 34.4027 27.4801C34.4027 27.4801 34.6563 25.1449 31.892 24.6056C31.892 24.6056 30.3281 24.3587 28.639 24.898C28.639 24.898 26.6254 25.575 24.4241 25.0357Z" fill="url(#paint1_linear_2077_2)"/>
<path fill-rule="evenodd" clip-rule="evenodd" d="M34.4027 27.4801C34.4027 27.4801 36.9185 24.9769 33.2463 23.2784C33.2463 23.2784 31.2715 22.7072 28.6289 24.0428C28.6289 24.0428 26.6017 25.0424 24.4241 25.0357C24.4241 25.0357 26.3769 25.5868 28.2992 24.9937C28.2992 24.9937 34.2421 22.9811 34.4027 27.4801Z" fill="url(#paint2_linear_2077_2)"/>
<path fill-rule="evenodd" clip-rule="evenodd" d="M23.1273 22.3444C23.1273 22.3444 26.7167 17.0893 22.2042 11.6747C22.2042 11.6747 18.4728 14.6953 20.4611 20.4174C20.4611 20.4174 20.8127 21.7329 23.2508 24.8005C23.2508 24.8005 26.8216 28.8981 22.1788 34.2472C22.1788 34.2472 17.4922 30.5226 21.232 25.1097C21.232 25.1097 19.4433 28.8325 22.096 32.3857C22.096 32.3857 25.8748 28.5167 21.6733 23.6245C21.6733 23.6245 16.1751 18.3981 19.9708 11.6747L21.9878 8.91278C21.9878 8.91278 25.3591 11.7251 25.4402 16.5669C25.4402 16.5669 25.824 19.8647 23.1273 22.3444Z" fill="url(#paint3_linear_2077_2)"/>
<path fill-rule="evenodd" clip-rule="evenodd" d="M24.7351 23.6934C24.7351 23.6934 26.0792 18.4972 31.7009 17.469C31.7009 17.469 31.0161 22.4654 26.8198 23.6934C26.8198 23.6934 33.1312 23.5859 33.1887 15.9755C33.1887 15.9755 25.6396 16.5736 24.7351 23.6934Z" fill="url(#paint4_linear_2077_2)"/>
<path fill-rule="evenodd" clip-rule="evenodd" d="M19.4973 23.6934C19.4973 23.6934 18.1515 18.4972 12.5315 17.469C12.5315 17.469 13.2163 22.4654 17.4126 23.6934C17.4126 23.6934 11.1012 23.5859 11.042 15.9755C11.042 15.9755 18.5928 16.5736 19.4973 23.6934Z" fill="url(#paint5_linear_2077_2)"/>
<path fill-rule="evenodd" clip-rule="evenodd" d="M19.4974 25.0357C19.4974 25.0357 17.2859 25.0223 15.2925 24.0428C7.93958 20.4308 5.3494 28.814 10.0226 29.15C10.0226 29.15 11.3312 29.2895 12.1292 27.8732C12.1292 27.8732 10.5805 28.8577 9.51872 27.4801C9.51872 27.4801 9.26511 25.1449 12.0294 24.6056C12.0294 24.6056 13.5934 24.3587 15.2824 24.898C15.2824 24.898 17.296 25.575 19.4974 25.0357Z" fill="url(#paint6_linear_2077_2)"/>
<path fill-rule="evenodd" clip-rule="evenodd" d="M9.51872 27.4801C9.51872 27.4801 7.00293 24.9769 10.6752 23.2784C10.6752 23.2784 12.6499 22.7072 15.2925 24.0428C15.2925 24.0428 17.3197 25.0424 19.4974 25.0357C19.4974 25.0357 17.5446 25.5868 15.6222 24.9937C15.6222 24.9937 9.67934 22.9811 9.51872 27.4801Z" fill="url(#paint7_linear_2077_2)"/>
</g>
</g>
<defs>
<linearGradient id="paint0_linear_2077_2" x1="31.6825" y1="39.64" x2="8.71984" y2="6.62229" gradientUnits="userSpaceOnUse">
<stop stop-color="#FCE7FF"/>
<stop offset="1" stop-color="#DBF8FF"/>
</linearGradient>
<linearGradient id="paint1_linear_2077_2" x1="34.1117" y1="28.9951" x2="34.1117" y2="23.6855" gradientUnits="userSpaceOnUse">
<stop stop-color="#05AC4C"/>
<stop offset="1" stop-color="#4AB148"/>
</linearGradient>
<linearGradient id="paint2_linear_2077_2" x1="25.1037" y1="25.1742" x2="35.9035" y2="25.1742" gradientUnits="userSpaceOnUse">
<stop stop-color="#57B347"/>
<stop offset="1" stop-color="#02753D"/>
</linearGradient>
<linearGradient id="paint3_linear_2077_2" x1="21.9607" y1="8.91323" x2="21.9395" y2="34.2468" gradientUnits="userSpaceOnUse">
<stop stop-color="#5B2D8F"/>
<stop offset="1" stop-color="#9D248A"/>
</linearGradient>
<linearGradient id="paint4_linear_2077_2" x1="21.9606" y1="8.91326" x2="21.9394" y2="34.2468" gradientUnits="userSpaceOnUse">
<stop stop-color="#5B2D8F"/>
<stop offset="1" stop-color="#9D248A"/>
</linearGradient>
<linearGradient id="paint5_linear_2077_2" x1="21.9607" y1="8.91326" x2="21.9394" y2="34.2468" gradientUnits="userSpaceOnUse">
<stop stop-color="#5B2D8F"/>
<stop offset="1" stop-color="#9D248A"/>
</linearGradient>
<linearGradient id="paint6_linear_2077_2" x1="9.80984" y1="28.9951" x2="9.80984" y2="23.6855" gradientUnits="userSpaceOnUse">
<stop stop-color="#05AC4C"/>
<stop offset="1" stop-color="#4AB148"/>
</linearGradient>
<linearGradient id="paint7_linear_2077_2" x1="18.8163" y1="25.1742" x2="8.01797" y2="25.1742" gradientUnits="userSpaceOnUse">
<stop stop-color="#57B347"/>
<stop offset="1" stop-color="#02753D"/>
</linearGradient>
<clipPath id="clip0_2077_2">
<rect width="44" height="43" fill="white"/>
</clipPath>
</defs>
</svg>
