<?xml version="1.0" encoding="UTF-8" standalone="no"?><!DOCTYPE svg PUBLIC "-//W3C//DTD SVG 1.1//EN" "http://www.w3.org/Graphics/SVG/1.1/DTD/svg11.dtd"><svg width="100%" height="100%" viewBox="0 0 258 66" version="1.1" xmlns="http://www.w3.org/2000/svg" xmlns:xlink="http://www.w3.org/1999/xlink" xml:space="preserve" xmlns:serif="http://www.serif.com/" style="fill-rule:evenodd;clip-rule:evenodd;stroke-linejoin:round;stroke-miterlimit:2;"><rect id="Artboard4" x="0" y="0" width="257.333" height="65.333" style="fill:none;"/><clipPath id="_clip1"><rect id="Artboard41" serif:id="Artboard4" x="0" y="0" width="257.333" height="65.333"/></clipPath><g clip-path="url(#_clip1)"><g><g><g transform="matrix(53.7107,0,0,53.7107,254.467,50.7994)"></g><text x="79.693px" y="50.799px" style="font-family:'FONTSPRINGDEMO-GeonExpandedMediumRegular', 'FONTSPRING DEMO - Geon Expanded Medium', sans-serif;font-weight:500;font-stretch:expanded;font-size:53.711px;">ISaras</text><circle cx="37.792" cy="32.667" r="32.667" style="fill:url(#_Linear2);"/></g><g><path d="M41.678,38.152c-0,0 3.488,-0.021 6.631,-1.575c11.597,-5.734 15.682,7.572 8.312,8.106c-0,0 -2.064,0.22 -3.322,-2.027c-0,-0 2.443,1.563 4.116,-0.623c-0,-0 0.401,-3.709 -3.96,-4.564c0,0 -2.467,-0.39 -5.129,0.465c-0,-0 -3.176,1.074 -6.648,0.218Z" style="fill:url(#_Linear3);"/><path d="M57.415,42.033c-0,-0 3.97,-3.974 -1.822,-6.67c-0,-0 -3.116,-0.907 -7.284,1.214c0,-0 -3.197,1.585 -6.631,1.575c-0,0 3.08,0.874 6.111,-0.067c0,-0 9.374,-3.193 9.626,3.948Z" style="fill:url(#_Linear4);"/><path d="M39.633,33.881c-0,-0 5.659,-8.343 -1.456,-16.937c0,-0 -5.885,4.796 -2.751,13.878c0,-0 0.555,2.088 4.401,6.956c-0,-0 5.631,6.504 -1.69,14.995c-0,-0 -7.392,-5.91 -1.493,-14.504c-0,0 -2.823,5.91 1.362,11.551c-0,-0 5.959,-6.144 -0.666,-13.907c-0,-0 -8.674,-8.298 -2.686,-18.969l3.182,-4.383c-0,-0 5.316,4.464 5.445,12.147c0,0 0.603,5.235 -3.648,9.173Z" style="fill:url(#_Linear5);"/><path d="M42.168,36.02c-0,0 2.121,-8.248 10.987,-9.877c0,-0 -1.081,7.929 -7.7,9.877c0,0 9.955,-0.171 10.048,-12.249c-0,0 -11.908,0.948 -13.335,12.249Z" style="fill:url(#_Linear6);"/><path d="M33.906,36.02c0,0 -2.121,-8.248 -10.987,-9.877c-0,-0 1.081,7.929 7.7,9.877c-0,0 -9.955,-0.171 -10.048,-12.249c0,0 11.908,0.948 13.335,12.249Z" style="fill:url(#_Linear7);"/><path d="M33.906,38.152c0,0 -3.488,-0.021 -6.631,-1.575c-11.597,-5.734 -15.682,7.572 -8.312,8.106c0,0 2.064,0.22 3.322,-2.027c0,-0 -2.443,1.563 -4.116,-0.623c0,-0 -0.401,-3.709 3.96,-4.564c-0,0 2.467,-0.39 5.129,0.465c0,-0 3.176,1.074 6.648,0.218Z" style="fill:url(#_Linear8);"/><path d="M18.169,42.033c0,-0 -3.97,-3.974 1.822,-6.67c0,-0 3.116,-0.907 7.284,1.214c-0,-0 3.197,1.585 6.631,1.575c0,0 -3.08,0.874 -6.111,-0.067c-0,-0 -9.374,-3.193 -9.626,3.948Z" style="fill:url(#_Linear9);"/></g></g></g><defs><linearGradient id="_Linear2" x1="0" y1="0" x2="1" y2="0" gradientUnits="userSpaceOnUse" gradientTransform="matrix(-36.5289,-52.1913,52.1913,-36.5289,53.1253,61.3333)"><stop offset="0" style="stop-color:#fce7ff;stop-opacity:1"/><stop offset="1" style="stop-color:#dbf8ff;stop-opacity:1"/></linearGradient><linearGradient id="_Linear3" x1="0" y1="0" x2="1" y2="0" gradientUnits="userSpaceOnUse" gradientTransform="matrix(5.16063e-16,-8.42795,-8.42795,-5.16063e-16,56.957,44.4369)"><stop offset="0" style="stop-color:#05ac4c;stop-opacity:1"/><stop offset="1" style="stop-color:#4ab148;stop-opacity:1"/></linearGradient><linearGradient id="_Linear4" x1="0" y1="0" x2="1" y2="0" gradientUnits="userSpaceOnUse" gradientTransform="matrix(17.0338,0,0,-17.0338,42.7494,38.3718)"><stop offset="0" style="stop-color:#57b347;stop-opacity:1"/><stop offset="1" style="stop-color:#02753d;stop-opacity:1"/></linearGradient><linearGradient id="_Linear5" x1="0" y1="0" x2="1" y2="0" gradientUnits="userSpaceOnUse" gradientTransform="matrix(-0.0339145,40.2119,40.2119,0.0339145,37.792,12.5607)"><stop offset="0" style="stop-color:#5b2d8f;stop-opacity:1"/><stop offset="1" style="stop-color:#9d248a;stop-opacity:1"/></linearGradient><linearGradient id="_Linear6" x1="0" y1="0" x2="1" y2="0" gradientUnits="userSpaceOnUse" gradientTransform="matrix(-0.0339145,40.2119,40.2119,0.0339145,37.792,12.5607)"><stop offset="0" style="stop-color:#5b2d8f;stop-opacity:1"/><stop offset="1" style="stop-color:#9d248a;stop-opacity:1"/></linearGradient><linearGradient id="_Linear7" x1="0" y1="0" x2="1" y2="0" gradientUnits="userSpaceOnUse" gradientTransform="matrix(-0.0339145,40.2119,40.2119,0.0339145,37.792,12.5607)"><stop offset="0" style="stop-color:#5b2d8f;stop-opacity:1"/><stop offset="1" style="stop-color:#9d248a;stop-opacity:1"/></linearGradient><linearGradient id="_Linear8" x1="0" y1="0" x2="1" y2="0" gradientUnits="userSpaceOnUse" gradientTransform="matrix(5.16063e-16,-8.42795,-8.42795,-5.16063e-16,18.6272,44.4369)"><stop offset="0" style="stop-color:#05ac4c;stop-opacity:1"/><stop offset="1" style="stop-color:#4ab148;stop-opacity:1"/></linearGradient><linearGradient id="_Linear9" x1="0" y1="0" x2="1" y2="0" gradientUnits="userSpaceOnUse" gradientTransform="matrix(-17.0316,-2.08577e-15,-2.08577e-15,17.0316,32.8326,38.3718)"><stop offset="0" style="stop-color:#57b347;stop-opacity:1"/><stop offset="1" style="stop-color:#02753d;stop-opacity:1"/></linearGradient></defs></svg>