<svg width="261" height="77" viewBox="0 0 261 77" fill="none" xmlns="http://www.w3.org/2000/svg">
<path d="M87.3617 61.5173C87.0752 61.0671 86.584 60.7805 85.8881 60.6577C85.1923 60.5349 84.1281 60.5145 82.6954 60.5963C82.1224 60.6782 81.5289 60.6373 80.9149 60.4736C80.3009 60.3098 79.8097 60.0642 79.4414 59.7368C79.073 59.4093 78.9297 59.0819 79.0116 58.7544C79.0525 58.2632 79.6255 57.7311 80.7307 57.1581C81.8359 56.585 83.2685 56.278 85.0286 56.2371L87.6073 56.1757L88.2213 54.9477C88.385 54.4975 88.5078 54.0063 88.5897 53.4742C88.7125 52.9421 88.9171 52.2053 89.2036 51.2639C89.3674 50.6908 89.613 49.8926 89.9404 48.8693C90.2679 47.846 90.6158 46.7613 90.9842 45.6152C91.3526 44.4282 91.68 43.364 91.9665 42.4225C92.2531 41.4811 92.4373 40.8262 92.5191 40.4578C92.6829 40.0894 92.908 39.4754 93.1945 38.6159C93.481 37.7154 93.7471 36.8149 93.9927 35.9144C94.2792 34.9729 94.4634 34.2975 94.5453 33.8882C95.6095 30.6546 96.3053 28.4033 96.6328 27.1344C96.9602 25.8246 97.0421 25.1492 96.8784 25.1083C96.7147 25.1083 96.3258 25.1288 95.7118 25.1697C95.0978 25.2106 94.4225 25.272 93.6857 25.3539C92.9489 25.3948 92.294 25.4562 91.721 25.5381C91.1479 25.62 90.8 25.7018 90.6772 25.7837C90.4725 26.0702 90.1246 26.0293 89.6334 25.6609C89.1422 25.2516 88.8352 24.8422 88.7125 24.4329C88.6715 24.0645 88.6715 23.7166 88.7125 23.3892C88.7534 23.0617 88.8762 22.8366 89.0808 22.7138C89.3674 22.4682 89.9609 22.2021 90.8614 21.9156C91.7619 21.5882 92.7647 21.3016 93.8699 21.056C95.016 20.8104 96.0597 20.6262 97.0012 20.5035C97.697 20.4216 98.3929 20.2783 99.0887 20.0737C99.7846 19.8281 100.337 19.5416 100.746 19.2141C101.115 19.0913 101.463 18.989 101.79 18.9071C102.159 18.8252 102.527 18.8048 102.895 18.8457C103.223 19.0504 103.775 19.1527 104.553 19.1527C105.372 19.1527 106.231 19.1322 107.132 19.0913C109.424 18.8866 111.02 18.9685 111.921 19.3369C112.862 19.6643 113.476 20.1146 113.763 20.6876C113.967 21.4654 113.927 22.1203 113.64 22.6524C113.354 23.1436 112.862 23.3687 112.166 23.3278C111.798 23.4096 111.286 23.4915 110.632 23.5734C109.977 23.6143 109.117 23.6552 108.053 23.6961C105.351 23.9417 103.898 24.2283 103.694 24.5557C103.53 24.7194 103.387 24.8832 103.264 25.0469C103.182 25.2106 103.059 25.3948 102.895 25.5995C102.936 25.7632 102.834 26.2544 102.588 27.073C102.384 27.8507 102.118 28.6899 101.79 29.5904C101.626 30.1225 101.381 30.8797 101.053 31.8621C100.726 32.8445 100.378 33.8678 100.01 34.932C99.6822 35.9553 99.3752 36.8967 99.0887 37.7563C98.8022 38.5749 98.5975 39.1275 98.4747 39.414C98.311 39.7824 98.1677 40.1917 98.0449 40.642C97.9631 41.0513 97.9017 41.3583 97.8608 41.563C97.2877 43.5686 96.7965 45.2468 96.3872 46.5976C96.0188 47.9484 95.6914 49.1354 95.4048 50.1587C95.1183 51.1411 94.8523 52.103 94.6067 53.0444C94.3611 53.9449 94.0745 54.9682 93.7471 56.1143C93.7471 56.1143 94.095 56.0938 94.7909 56.0529C95.4867 55.971 96.3667 55.8892 97.431 55.8073C99.3548 55.6026 100.665 55.4798 101.36 55.4389C102.056 55.398 102.466 55.4594 102.588 55.6231C102.711 55.7459 102.834 55.9915 102.957 56.3599C103.775 57.465 103.714 58.386 102.773 59.1228C101.872 59.8596 100.276 60.2075 97.9835 60.1666C95.8551 60.2484 94.2792 60.3098 93.2559 60.3508C92.2735 60.4326 91.6391 60.5349 91.3526 60.6577C91.066 60.7805 90.9228 60.9852 90.9228 61.2717C90.9637 61.9266 90.5544 62.3155 89.6948 62.4383C88.8762 62.602 88.0985 62.295 87.3617 61.5173ZM104.748 64.2802C104.298 64.2802 103.909 64.1779 103.582 63.9732C103.295 63.7686 103.07 63.523 102.906 63.2365C102.906 62.9499 102.988 62.7043 103.152 62.4997C103.316 62.295 103.541 62.0494 103.827 61.7629C104.278 61.3536 104.707 60.8419 105.117 60.228C105.526 59.6549 105.894 59.0614 106.222 58.4474C106.59 57.8334 106.877 57.3423 107.081 56.9739C107.245 56.5236 107.409 55.9915 107.573 55.3775C107.736 54.7635 107.9 54.0882 108.064 53.3514C108.064 53.0239 108.064 52.7374 108.064 52.4918C108.105 52.2053 108.207 51.9802 108.371 51.8164C108.698 51.5299 109.087 51.2843 109.537 51.0797C110.029 50.8341 110.499 50.9159 110.95 51.3253C111.441 51.6936 111.809 52.6555 112.055 54.211C112.218 55.1115 112.218 55.9301 112.055 56.6669C111.891 57.4037 111.543 58.3042 111.011 59.3684C110.929 59.6549 110.622 60.1256 110.09 60.7805C109.599 61.4355 109.087 62.029 108.555 62.5611C108.064 63.1341 107.757 63.4207 107.634 63.4207C107.47 63.4207 107.327 63.4616 107.204 63.5435C107.081 63.6662 106.918 63.8095 106.713 63.9732C106.549 64.137 106.304 64.2188 105.976 64.2188C105.649 64.2598 105.24 64.2802 104.748 64.2802ZM144.745 62.9909C144.008 62.7862 143.415 62.602 142.964 62.4383C142.514 62.3155 142.289 62.2541 142.289 62.2541C142.371 62.0494 142.33 61.8652 142.166 61.7015C142.043 61.5378 141.757 61.4355 141.307 61.3945C140.693 60.9852 140.058 60.4122 139.403 59.6754C138.748 58.9386 138.175 58.1814 137.684 57.4037C137.193 56.6259 136.865 56.0529 136.702 55.6845C136.415 55.0705 136.436 54.7021 136.763 54.5793C137.091 54.4156 137.479 54.2314 137.93 54.0268C138.38 53.6993 138.851 53.4537 139.342 53.29C139.874 53.1263 140.304 53.3923 140.631 54.0882C141.163 55.0296 141.982 55.8278 143.087 56.4827C144.233 57.1376 145.523 57.5264 146.955 57.6492C148.429 57.772 149.902 57.5264 151.376 56.9125C152.358 56.4622 152.89 55.8482 152.972 55.0705C153.054 54.2519 152.747 53.3105 152.051 52.2462C151.928 51.9188 151.744 51.6527 151.499 51.448C151.294 51.2434 150.967 50.9773 150.516 50.6499C150.107 50.3224 149.513 49.7903 148.736 49.0535C148.122 48.767 147.549 48.5009 147.017 48.2553C146.525 48.0098 145.993 47.7437 145.42 47.4572C144.765 47.1297 144.029 46.6795 143.21 46.1064C142.391 45.4924 141.634 44.8375 140.938 44.1417C140.242 43.4049 139.71 42.7091 139.342 42.0542C138.687 41.4402 138.278 40.6011 138.114 39.5368C137.95 38.4317 137.971 37.2651 138.175 36.0371C138.421 34.8092 138.81 33.704 139.342 32.7217C139.587 32.1486 140.038 31.4118 140.693 30.5113C141.347 29.5699 142.084 28.608 142.903 27.6256C143.722 26.6433 144.499 25.7632 145.236 24.9855C146.014 24.1669 146.628 23.6143 147.078 23.3278C147.405 23.0003 147.753 22.6728 148.122 22.3454C148.49 21.977 148.674 21.7928 148.674 21.7928C148.715 21.5882 148.777 21.4858 148.859 21.4858C148.981 21.4858 149.043 21.4858 149.043 21.4858C149.247 21.363 149.698 21.1584 150.393 20.8718C151.089 20.5853 151.847 20.0532 152.665 19.2755C155.408 17.9657 157.741 17.0856 159.665 16.6354C161.588 16.1442 163.103 15.8986 164.208 15.8986C165.231 15.9395 166.234 16.2261 167.217 16.7582C168.199 17.2494 169.038 17.8838 169.734 18.6615C170.471 19.4392 170.9 20.3193 171.023 21.3016C171.31 22.284 171.166 23.471 170.593 24.8627C170.061 26.2135 169.304 27.5028 168.322 28.7308C167.38 29.9178 166.398 30.7979 165.375 31.3709C164.228 31.8621 163.246 31.9235 162.427 31.5551C161.65 31.1867 161.281 30.6137 161.322 29.8359C161.322 29.5085 161.425 29.1196 161.629 28.6694C161.875 28.2191 162.509 27.421 163.533 26.2749C164.842 24.3511 165.538 22.9798 165.62 22.1612C165.702 21.3426 165.334 20.8718 164.515 20.749C164.269 20.6672 163.799 20.6876 163.103 20.8104C162.407 20.9332 161.65 21.097 160.831 21.3016C160.053 21.4654 159.358 21.6495 158.744 21.8542C158.171 22.0589 157.884 22.2021 157.884 22.284C157.884 22.284 157.884 22.3454 157.884 22.4682C157.884 22.591 157.802 22.6319 157.638 22.591C157.557 22.591 157.27 22.7342 156.779 23.0208C156.329 23.2664 155.776 23.5938 155.121 24.0031C154.466 24.4125 153.811 24.8422 153.156 25.2925C152.542 25.7018 152.01 26.0702 151.56 26.3977C151.11 26.7251 150.864 26.9298 150.823 27.0116C150.741 27.4619 150.271 27.8712 149.411 28.2396C148.592 28.7308 147.876 29.4266 147.262 30.3271C146.648 31.2276 145.932 32.3737 145.113 33.7654C144.417 34.7069 143.926 35.7302 143.64 36.8353C143.353 37.8996 143.353 38.7591 143.64 39.414C143.844 40.069 144.397 40.7239 145.297 41.3788C146.239 41.9928 147.508 42.7705 149.104 43.7119C150.496 44.4896 151.806 45.3082 153.034 46.1678C154.262 47.0274 155.305 47.8665 156.165 48.6851C157.024 49.4628 157.577 50.1178 157.823 50.6499C158.314 51.3457 158.6 52.1439 158.682 53.0444C158.805 53.9449 158.805 54.8249 158.682 55.6845C158.6 56.5031 158.478 57.1785 158.314 57.7106C158.027 58.3656 157.577 59.0614 156.963 59.7982C156.39 60.535 155.858 60.8829 155.367 60.8419C154.916 60.9647 154.569 61.108 154.323 61.2717C154.118 61.4355 153.873 61.5787 153.586 61.7015C153.3 61.8652 152.624 62.0494 151.56 62.2541C150.496 62.4997 149.329 62.6839 148.06 62.8067C146.791 62.9704 145.686 63.0318 144.745 62.9909ZM165.826 57.7106C165.662 57.3832 165.294 57.0557 164.721 56.7283C164.189 56.4008 163.923 56.1552 163.923 55.9915C163.923 55.8278 163.82 55.5822 163.616 55.2547C163.452 54.8863 163.288 54.6203 163.124 54.4565C162.92 54.211 162.981 53.6174 163.309 52.676C163.636 51.6936 164.127 50.5066 164.782 49.1149C165.437 47.7232 166.153 46.3111 166.931 44.8785C167.259 44.551 167.586 44.1212 167.913 43.5891C168.241 43.057 168.487 42.7091 168.65 42.5453C168.65 42.3816 168.712 42.2383 168.834 42.1155C168.957 41.9518 169.1 41.87 169.264 41.87L169.755 40.8876C169.837 40.7239 170.083 40.3964 170.492 39.9052C170.942 39.414 171.475 38.8819 172.089 38.3089C172.703 37.6949 173.316 37.1218 173.93 36.5897C174.585 36.0576 175.118 35.6688 175.527 35.4232C176.386 34.8501 177.266 34.5841 178.167 34.625C179.108 34.6659 179.907 34.9524 180.561 35.4846C180.684 35.6074 180.95 35.853 181.36 36.2213C181.81 36.5897 182.301 36.999 182.833 37.4493C183.406 37.8996 183.897 38.3089 184.307 38.6773L186.578 40.7034L185.535 43.7733C185.003 45.4106 184.859 46.8432 185.105 48.0712C185.391 49.2991 185.78 50.3633 186.271 51.2639C186.476 51.7141 186.742 52.062 187.07 52.3076C187.438 52.5532 187.909 52.7169 188.482 52.7988C188.809 52.8397 189.116 52.9625 189.403 53.1672C189.689 53.3718 189.833 53.6993 189.833 54.1496C189.833 55.1319 189.648 55.8482 189.28 56.2985C188.953 56.7078 188.584 56.9534 188.175 57.0353C186.824 57.199 185.535 57.0557 184.307 56.6055C183.079 56.1552 181.974 54.9887 180.991 53.1058C180.828 52.8602 180.602 52.4099 180.316 51.755C180.07 51.0592 179.927 50.6089 179.886 50.4043C179.722 50.6089 179.497 50.875 179.211 51.2025C178.965 51.489 178.72 51.755 178.474 52.0006C175.568 54.9477 173.071 56.8715 170.983 57.772C168.937 58.6316 167.218 58.6111 165.826 57.7106ZM169.203 52.6146C169.489 52.6555 169.94 52.5123 170.554 52.1848C171.168 51.8164 171.986 51.2229 173.01 50.4043C174.401 49.2173 175.547 48.2349 176.448 47.4572C177.348 46.6795 178.228 45.6766 179.088 44.4487L180.439 42.2383C180.029 41.2969 179.661 40.6829 179.333 40.3964C179.006 40.1099 178.679 39.9666 178.351 39.9666C177.819 39.9666 177.185 40.3145 176.448 41.0104C175.711 41.6653 174.872 42.6477 173.93 43.9575C173.03 45.2264 172.007 46.8227 170.861 48.7465C170.328 49.647 169.919 50.5271 169.633 51.3866C169.346 52.2053 169.203 52.6146 169.203 52.6146ZM192.92 57.3423C192.552 57.0557 192.143 56.6873 191.692 56.2371C191.283 55.7868 191.14 55.1524 191.262 54.3338C191.385 53.1877 191.549 52.1848 191.754 51.3253C191.958 50.4247 192.204 49.4014 192.49 48.2553C192.572 47.7642 192.777 46.9251 193.104 45.738C193.473 44.551 193.903 43.2616 194.394 41.87C194.885 40.4783 195.397 39.1684 195.929 37.9405C196.461 36.6716 196.932 35.7302 197.341 35.1162C197.791 34.7069 198.446 34.5022 199.306 34.5022C200.206 34.5022 200.82 34.6659 201.148 34.9934C201.598 35.3618 201.741 36.0167 201.577 36.9581C201.414 37.8586 200.841 39.2708 199.858 41.1946C199.654 41.6858 199.387 42.2179 199.06 42.7909C198.773 43.323 198.569 43.7733 198.446 44.1417C198.323 44.4691 198.364 44.6124 198.569 44.5715C198.814 44.1212 199.265 43.6096 199.92 43.0365C200.574 42.4225 201.27 41.829 202.007 41.256C202.744 40.6829 203.44 40.1713 204.095 39.721C204.75 39.2708 205.2 38.9843 205.445 38.8615C205.773 38.6568 206.141 38.4931 206.551 38.3703C207.001 38.2065 207.308 38.0837 207.472 38.0019C208.413 37.5516 209.436 37.3879 210.541 37.5107C211.688 37.5926 212.383 37.9405 212.629 38.5545C212.67 38.8819 212.793 39.1275 212.997 39.2912C213.243 39.455 213.366 39.5368 213.366 39.5368C213.529 39.5368 213.611 39.5982 213.611 39.721C213.652 39.8438 213.673 39.9052 213.673 39.9052C213.673 40.1917 213.386 40.6011 212.813 41.1332C212.281 41.6653 211.688 41.9518 211.033 41.9928C210.501 42.0337 210.03 42.136 209.62 42.2997C209.211 42.4635 208.72 42.6681 208.147 42.9137C206.591 43.8142 205.179 44.6124 203.91 45.3082C202.682 46.0041 201.414 47.0683 200.104 48.5009C199.817 48.8284 199.51 49.1354 199.183 49.4219C198.855 49.7084 198.528 50.1178 198.2 50.6499C197.996 50.8545 197.791 51.3048 197.586 52.0006C197.382 52.6965 197.198 53.3718 197.034 54.0268C196.911 54.6407 196.85 55.0091 196.85 55.1319C196.85 55.1319 196.788 55.3366 196.665 55.7459C196.543 56.1143 196.338 56.4827 196.052 56.8511C195.56 57.506 195.069 57.9153 194.578 58.079C194.128 58.2428 193.575 57.9972 192.92 57.3423ZM219.343 58.1404C219.015 58.2223 218.586 58.2632 218.054 58.2632C217.521 58.2223 217.051 58.1609 216.641 58.079C216.273 57.9562 216.089 57.8334 216.089 57.7106C216.089 57.506 215.987 57.4037 215.782 57.4037C215.782 57.4037 215.557 57.2399 215.106 56.9125C214.656 56.5441 214.247 56.278 213.879 56.1143C213.51 55.5412 213.265 54.8863 213.142 54.1496C213.06 53.3718 213.305 52.0211 213.879 50.0973C213.919 48.7875 214.288 47.4162 214.984 45.9836C215.68 44.5101 216.56 43.0775 217.624 41.6858C218.688 40.2941 219.793 39.0661 220.939 38.0019C222.085 36.8967 223.109 36.0781 224.009 35.546C224.582 34.9729 225.339 34.6659 226.281 34.625C227.263 34.5841 228.123 34.7683 228.86 35.1776C229.269 35.3822 229.719 35.7916 230.21 36.4055C230.702 37.0195 231.172 37.6744 231.623 38.3703C232.073 39.0252 232.421 39.6187 232.666 40.1508C232.789 40.6011 232.891 41.0104 232.973 41.3788C233.096 41.7062 233.178 42.1155 233.219 42.6067C233.26 43.0979 233.219 43.8347 233.096 44.8171C232.891 45.5538 232.707 46.3111 232.544 47.0888C232.421 47.8256 232.359 48.5828 232.359 49.3605C232.277 50.1382 232.359 50.6908 232.605 51.0183C232.891 51.3457 233.301 51.3662 233.833 51.0797C234.324 50.8341 234.836 50.8136 235.368 51.0183C235.9 51.182 236.268 51.5094 236.473 52.0006C236.719 52.4509 236.657 53.0444 236.289 53.7812C236.043 54.3133 235.654 54.8249 235.122 55.3161C234.59 55.8073 233.997 56.2166 233.342 56.5441C232.687 56.8306 232.052 56.9739 231.438 56.9739C230.988 56.9739 230.538 56.8101 230.088 56.4827C229.637 56.1143 229.228 55.6231 228.86 55.0091C228.491 54.3951 228.184 53.7198 227.939 52.983L227.57 51.5708L225.36 53.597C224.828 54.17 224.296 54.7021 223.764 55.1933C223.272 55.6436 222.965 55.971 222.843 56.1757C222.638 56.5441 222.229 56.8715 221.615 57.1581C221.042 57.4446 220.284 57.772 219.343 58.1404ZM221.001 52.2462C221.697 51.8369 222.29 51.3457 222.781 50.7727C223.313 50.1996 223.825 49.5652 224.316 48.8693C224.807 48.1326 225.339 47.3548 225.913 46.5362C226.608 45.5948 227.1 44.8375 227.386 44.2645C227.714 43.6914 227.959 43.0775 228.123 42.4225C227.959 41.9723 227.734 41.5016 227.447 41.0104C227.161 40.4783 226.874 40.1917 226.588 40.1508C226.015 40.1508 225.319 40.4987 224.5 41.1946C223.723 41.8904 222.863 42.8933 221.922 44.2031C221.758 44.4077 221.553 44.7352 221.308 45.1854C221.062 45.6357 220.816 46.0655 220.571 46.4748C220.366 46.8432 220.223 47.0888 220.141 47.2116C220.018 47.3753 219.834 47.7642 219.589 48.3781C219.384 48.9512 219.2 49.5447 219.036 50.1587C218.872 50.7317 218.79 51.1411 218.79 51.3866C218.79 51.6322 218.811 51.8983 218.852 52.1848C218.934 52.4713 219.138 52.6555 219.466 52.7374C219.793 52.8193 220.305 52.6555 221.001 52.2462ZM244.833 59.3684C243.523 59.3684 242.315 59.0819 241.21 58.5088C240.146 57.8948 239.286 57.1581 238.631 56.2985C237.977 55.398 237.649 54.5384 237.649 53.7198C237.649 53.3514 237.711 53.0853 237.833 52.9216C237.997 52.7579 238.222 52.676 238.509 52.676C238.713 52.7169 238.959 52.8193 239.245 52.983C239.532 53.1467 239.819 53.3309 240.105 53.5356C240.76 53.9858 241.476 54.2724 242.254 54.3951C243.032 54.5179 243.728 54.477 244.342 54.2724C244.955 54.0268 245.303 53.6584 245.385 53.1672C245.385 53.0035 245.303 52.6555 245.14 52.1234C244.976 51.5913 244.771 51.0797 244.526 50.5885C243.502 49.074 242.868 47.6414 242.622 46.2906C242.377 44.8989 242.213 43.5072 242.131 42.1155C242.131 41.5425 242.397 40.9081 242.929 40.2122C243.461 39.4754 244.116 38.7591 244.894 38.0633C245.754 37.3265 246.695 36.6307 247.718 35.9757C248.783 35.3208 249.826 34.7683 250.85 34.318C251.873 33.8678 252.733 33.6017 253.428 33.5198C254.165 33.5198 254.943 33.5608 255.762 33.6426C256.621 33.6836 257.194 33.8268 257.481 34.0724C258.054 34.5227 258.586 35.2594 259.077 36.2827C259.568 37.306 259.814 38.1656 259.814 38.8615C259.814 39.1889 259.63 39.5982 259.261 40.0894C258.934 40.5397 258.627 41.0513 258.34 41.6244C258.177 41.9109 258.033 42.2179 257.91 42.5453C257.788 42.8728 257.644 43.2002 257.481 43.5277C257.235 44.1008 256.785 44.3463 256.13 44.2645C255.516 44.1417 254.943 43.8142 254.411 43.2821C253.879 42.7091 253.613 42.0542 253.613 41.3174C253.613 40.7034 253.797 40.1713 254.165 39.721C254.534 39.2708 254.718 38.9638 254.718 38.8001C254.718 38.7182 254.677 38.6568 254.595 38.6159C254.513 38.5749 254.37 38.5545 254.165 38.5545C253.879 38.5545 253.408 38.6773 252.753 38.9229C252.139 39.1275 251.484 39.4345 250.788 39.8438C250.092 40.2531 249.458 40.7443 248.885 41.3174C248.476 41.7676 248.128 42.2588 247.841 42.7909C247.596 43.2821 247.473 43.8142 247.473 44.3873C247.473 44.9603 247.575 45.6357 247.78 46.4134C248.025 47.1502 248.291 47.7642 248.578 48.2553C248.66 48.3372 248.783 48.5623 248.946 48.9307C249.151 49.2582 249.376 49.6675 249.622 50.1587C251.136 53.2695 251.382 55.5822 250.359 57.0967C249.376 58.6111 247.534 59.3684 244.833 59.3684Z" fill="black"/>
<path d="M33.7166 71.488C52.3378 71.488 67.4332 56.8625 67.4332 38.821C67.4332 20.7795 52.3378 6.15399 33.7166 6.15399C15.0954 6.15399 0 20.7795 0 38.821C0 56.8625 15.0954 71.488 33.7166 71.488Z" fill="url(#paint0_linear_2031_58)"/>
<path fill-rule="evenodd" clip-rule="evenodd" d="M37.7264 44.306C37.7264 44.306 41.3275 44.285 44.5715 42.731C56.5401 36.997 60.7574 50.303 53.1506 50.837C53.1506 50.837 51.0203 51.057 49.7219 48.81C49.7219 48.81 52.2423 50.373 53.9691 48.187C53.9691 48.187 54.383 44.478 49.8829 43.623C49.8829 43.623 47.3366 43.233 44.5891 44.088C44.5891 44.088 41.311 45.162 37.7264 44.306Z" fill="url(#paint1_linear_2031_58)"/>
<path fill-rule="evenodd" clip-rule="evenodd" d="M53.9691 48.187C53.9691 48.187 58.0666 44.213 52.0896 41.517C52.0896 41.517 48.8734 40.61 44.5715 42.731C44.5715 42.731 41.2718 44.316 37.7264 44.306C37.7264 44.306 40.9064 45.18 44.0348 44.239C44.0348 44.239 53.709 41.046 53.9691 48.187Z" fill="url(#paint2_linear_2031_58)"/>
<path fill-rule="evenodd" clip-rule="evenodd" d="M35.6168 40.035C35.6168 40.035 41.4576 31.692 34.114 23.098C34.114 23.098 28.0399 27.894 31.2746 36.976C31.2746 36.976 31.8474 39.064 35.817 43.932C35.817 43.932 41.6289 50.436 34.0717 58.927C34.0717 58.927 26.4432 53.017 32.5307 44.423C32.5307 44.423 29.618 50.333 33.9365 55.974C33.9365 55.974 40.0869 49.83 33.2491 42.067C33.2491 42.067 24.2964 33.769 30.4768 23.098L33.762 18.715C33.762 18.715 39.2488 23.179 39.382 30.862C39.382 30.862 40.0043 36.097 35.6168 40.035Z" fill="url(#paint3_linear_2031_58)"/>
<path fill-rule="evenodd" clip-rule="evenodd" d="M38.2323 42.174C38.2323 42.174 40.4225 33.926 49.5733 32.297C49.5733 32.297 48.4566 40.226 41.6259 42.174C41.6259 42.174 51.8998 42.003 51.9958 29.925C51.9958 29.925 39.7062 30.873 38.2323 42.174Z" fill="url(#paint4_linear_2031_58)"/>
<path fill-rule="evenodd" clip-rule="evenodd" d="M29.7058 42.174C29.7058 42.174 27.5157 33.926 18.3658 32.297C18.3658 32.297 19.4816 40.226 26.3122 42.174C26.3122 42.174 16.0384 42.003 15.9424 29.925C15.9424 29.925 28.233 30.873 29.7058 42.174Z" fill="url(#paint5_linear_2031_58)"/>
<path fill-rule="evenodd" clip-rule="evenodd" d="M29.7058 44.306C29.7058 44.306 26.1057 44.285 22.8607 42.731C10.8921 36.997 6.6748 50.303 14.2826 50.837C14.2826 50.837 16.413 51.057 17.7114 48.81C17.7114 48.81 15.1899 50.373 13.4631 48.187C13.4631 48.187 13.0492 44.478 17.5493 43.623C17.5493 43.623 20.0956 43.233 22.8442 44.088C22.8442 44.088 26.1212 45.162 29.7058 44.306Z" fill="url(#paint6_linear_2031_58)"/>
<path fill-rule="evenodd" clip-rule="evenodd" d="M13.4632 48.187C13.4632 48.187 9.36563 44.213 15.3437 41.517C15.3437 41.517 18.5599 40.61 22.8607 42.731C22.8607 42.731 26.1605 44.316 29.7058 44.306C29.7058 44.306 26.5269 45.18 23.3974 44.239C23.3974 44.239 13.7233 41.046 13.4632 48.187Z" fill="url(#paint7_linear_2031_58)"/>
<defs>
<linearGradient id="paint0_linear_2031_58" x1="49.5423" y1="67.4873" x2="13.4226" y2="14.2226" gradientUnits="userSpaceOnUse">
<stop stop-color="#FCE7FF"/>
<stop offset="1" stop-color="#DBF8FF"/>
</linearGradient>
<linearGradient id="paint1_linear_2031_58" x1="53.4971" y1="50.5909" x2="53.4971" y2="42.163" gradientUnits="userSpaceOnUse">
<stop stop-color="#05AC4C"/>
<stop offset="1" stop-color="#4AB148"/>
</linearGradient>
<linearGradient id="paint2_linear_2031_58" x1="38.833" y1="44.5258" x2="56.4141" y2="44.5258" gradientUnits="userSpaceOnUse">
<stop stop-color="#57B347"/>
<stop offset="1" stop-color="#02753D"/>
</linearGradient>
<linearGradient id="paint3_linear_2031_58" x1="33.7163" y1="18.7147" x2="33.6834" y2="58.9266" gradientUnits="userSpaceOnUse">
<stop stop-color="#5B2D8F"/>
<stop offset="1" stop-color="#9D248A"/>
</linearGradient>
<linearGradient id="paint4_linear_2031_58" x1="33.7164" y1="18.7147" x2="33.6836" y2="58.9267" gradientUnits="userSpaceOnUse">
<stop stop-color="#5B2D8F"/>
<stop offset="1" stop-color="#9D248A"/>
</linearGradient>
<linearGradient id="paint5_linear_2031_58" x1="33.7164" y1="18.7147" x2="33.6835" y2="58.9267" gradientUnits="userSpaceOnUse">
<stop stop-color="#5B2D8F"/>
<stop offset="1" stop-color="#9D248A"/>
</linearGradient>
<linearGradient id="paint6_linear_2031_58" x1="13.9357" y1="50.5909" x2="13.9357" y2="42.163" gradientUnits="userSpaceOnUse">
<stop stop-color="#05AC4C"/>
<stop offset="1" stop-color="#4AB148"/>
</linearGradient>
<linearGradient id="paint7_linear_2031_58" x1="28.5976" y1="44.5258" x2="11.0188" y2="44.5258" gradientUnits="userSpaceOnUse">
<stop stop-color="#57B347"/>
<stop offset="1" stop-color="#02753D"/>
</linearGradient>
</defs>
</svg>
