<?xml version="1.0" encoding="UTF-8" standalone="no"?><!DOCTYPE svg PUBLIC "-//W3C//DTD SVG 1.1//EN" "http://www.w3.org/Graphics/SVG/1.1/DTD/svg11.dtd"><svg width="100%" height="100%" viewBox="0 0 97 25" version="1.1" xmlns="http://www.w3.org/2000/svg" xmlns:xlink="http://www.w3.org/1999/xlink" xml:space="preserve" xmlns:serif="http://www.serif.com/" style="fill-rule:evenodd;clip-rule:evenodd;stroke-linejoin:round;stroke-miterlimit:2;"><rect id="Artboard4" x="0" y="0" width="96.5" height="24.5" style="fill:none;"/><clipPath id="_clip1"><rect id="Artboard41" serif:id="Artboard4" x="0" y="0" width="96.5" height="24.5"/></clipPath><g clip-path="url(#_clip1)"><g><g><g><path d="M33.151,20.075c-0.11,-0.172 -0.337,-0.282 -0.683,-0.329c-0.345,-0.047 -0.792,-0.055 -1.341,-0.024c-0.22,0.032 -0.435,0.02 -0.647,-0.035c-0.212,-0.055 -0.381,-0.141 -0.506,-0.259c-0.126,-0.118 -0.173,-0.239 -0.141,-0.365c0.015,-0.188 0.196,-0.357 0.541,-0.506c0.345,-0.149 0.855,-0.231 1.53,-0.247l1.153,-0.023l0.235,-0.471c0.063,-0.173 0.133,-0.396 0.212,-0.671c0.078,-0.274 0.173,-0.592 0.282,-0.953c0.063,-0.219 0.157,-0.522 0.283,-0.906c0.125,-0.384 0.259,-0.792 0.4,-1.224c0.141,-0.431 0.267,-0.819 0.376,-1.165c0.11,-0.345 0.181,-0.588 0.212,-0.729c0.063,-0.141 0.149,-0.381 0.259,-0.718c0.11,-0.337 0.216,-0.682 0.318,-1.035c0.102,-0.353 0.168,-0.608 0.2,-0.765c0.408,-1.24 0.674,-2.118 0.8,-2.636c0.125,-0.518 0.157,-0.784 0.094,-0.8c-0.063,-0 -0.216,0.008 -0.459,0.024c-0.243,0.015 -0.506,0.035 -0.788,0.058c-0.283,0.024 -0.538,0.051 -0.765,0.083c-0.228,0.031 -0.365,0.062 -0.412,0.094c-0.078,0.11 -0.212,0.121 -0.4,0.035c-0.188,-0.086 -0.306,-0.208 -0.353,-0.365c-0.016,-0.141 -0.02,-0.258 -0.012,-0.353c0.008,-0.094 0.051,-0.164 0.13,-0.211c0.109,-0.095 0.329,-0.2 0.659,-0.318c0.329,-0.118 0.698,-0.224 1.106,-0.318c0.408,-0.094 0.792,-0.165 1.153,-0.212c0.267,-0.031 0.533,-0.09 0.8,-0.176c0.267,-0.086 0.478,-0.192 0.635,-0.318c0.142,-0.047 0.279,-0.086 0.412,-0.117c0.134,-0.032 0.271,-0.04 0.412,-0.024c0.126,0.078 0.341,0.118 0.647,0.118c0.306,-0 0.632,-0.008 0.977,-0.024c0.878,-0.078 1.479,-0.086 1.8,-0.023c0.322,0.062 0.537,0.204 0.647,0.423c0.079,0.298 0.083,0.534 0.012,0.706c-0.071,0.173 -0.239,0.251 -0.506,0.236c-0.141,0.031 -0.376,0.058 -0.706,0.082c-0.329,0.023 -0.698,0.043 -1.106,0.059c-1.083,0.094 -1.663,0.204 -1.741,0.329c-0.063,0.063 -0.114,0.126 -0.153,0.188c-0.04,0.063 -0.091,0.134 -0.153,0.212c0.015,0.063 -0.02,0.259 -0.106,0.589c-0.087,0.329 -0.192,0.666 -0.318,1.012c-0.063,0.203 -0.157,0.494 -0.282,0.87c-0.126,0.377 -0.255,0.765 -0.389,1.165c-0.133,0.4 -0.255,0.761 -0.364,1.083c-0.11,0.321 -0.189,0.537 -0.236,0.647c-0.063,0.141 -0.114,0.294 -0.153,0.459c-0.039,0.165 -0.066,0.286 -0.082,0.365c-0.22,0.768 -0.408,1.415 -0.565,1.941c-0.157,0.526 -0.298,0.988 -0.424,1.389c-0.125,0.4 -0.243,0.78 -0.353,1.141c-0.109,0.361 -0.227,0.761 -0.353,1.2c0,0 0.126,-0.012 0.377,-0.035c0.251,-0.024 0.581,-0.051 0.988,-0.083c0.738,-0.078 1.259,-0.125 1.565,-0.141c0.306,-0.015 0.502,0.004 0.589,0.059c0.086,0.055 0.153,0.153 0.2,0.294c0.314,0.424 0.333,0.734 0.059,0.93c-0.275,0.196 -0.852,0.286 -1.73,0.27c-0.816,0.032 -1.432,0.059 -1.847,0.083c-0.416,0.023 -0.695,0.059 -0.836,0.106c-0.141,0.047 -0.227,0.125 -0.259,0.235c0.016,0.173 -0.074,0.267 -0.27,0.282c-0.197,0.016 -0.404,-0.047 -0.624,-0.188Z" style="fill-rule:nonzero;"/><path d="M39.458,21.181c-0.157,0 -0.271,-0.019 -0.341,-0.059c-0.071,-0.039 -0.138,-0.113 -0.2,-0.223c-0,-0.11 0.031,-0.204 0.094,-0.283c0.063,-0.078 0.149,-0.172 0.259,-0.282c0.157,-0.157 0.329,-0.349 0.517,-0.577c0.189,-0.227 0.365,-0.458 0.53,-0.694c0.165,-0.235 0.286,-0.423 0.365,-0.565c0.062,-0.172 0.121,-0.376 0.176,-0.611c0.055,-0.236 0.114,-0.495 0.177,-0.777c-0,-0.126 0.004,-0.239 0.011,-0.341c0.008,-0.102 0.044,-0.185 0.106,-0.247c0.126,-0.11 0.247,-0.173 0.365,-0.189c0.118,-0.015 0.228,0.059 0.33,0.224c0.102,0.165 0.184,0.459 0.247,0.882c0.062,0.346 0.062,0.659 -0,0.942c-0.063,0.282 -0.189,0.627 -0.377,1.035c-0.031,0.11 -0.137,0.279 -0.318,0.506c-0.18,0.228 -0.36,0.439 -0.541,0.636c-0.18,0.196 -0.294,0.294 -0.341,0.294c-0.063,-0 -0.118,0.019 -0.165,0.059c-0.047,0.039 -0.102,0.09 -0.165,0.153c-0.062,0.062 -0.156,0.098 -0.282,0.105c-0.125,0.008 -0.275,0.012 -0.447,0.012Z" style="fill-rule:nonzero;"/><path d="M48.942,20.569c-0.283,-0.078 -0.51,-0.145 -0.683,-0.2c-0.172,-0.055 -0.258,-0.082 -0.258,-0.082c0.031,-0.078 0.019,-0.149 -0.036,-0.212c-0.055,-0.063 -0.168,-0.102 -0.341,-0.118c-0.235,-0.141 -0.459,-0.329 -0.671,-0.564c-0.212,-0.236 -0.392,-0.471 -0.541,-0.706c-0.149,-0.236 -0.255,-0.424 -0.318,-0.565c-0.11,-0.235 -0.141,-0.381 -0.094,-0.435c0.047,-0.055 0.157,-0.122 0.33,-0.201c0.172,-0.125 0.321,-0.184 0.447,-0.176c0.125,0.008 0.251,0.145 0.376,0.412c0.204,0.361 0.542,0.647 1.012,0.859c0.471,0.212 1.004,0.317 1.601,0.317c0.596,0 1.176,-0.125 1.741,-0.376c0.518,-0.22 0.831,-0.467 0.941,-0.741c0.11,-0.275 0.032,-0.616 -0.235,-1.024c-0.047,-0.126 -0.106,-0.228 -0.177,-0.306c-0.07,-0.078 -0.176,-0.18 -0.317,-0.306c-0.141,-0.125 -0.361,-0.329 -0.659,-0.612c-0.235,-0.11 -0.451,-0.212 -0.647,-0.306c-0.196,-0.094 -0.404,-0.196 -0.624,-0.306c-0.251,-0.125 -0.549,-0.306 -0.894,-0.541c-0.345,-0.235 -0.667,-0.498 -0.965,-0.788c-0.298,-0.291 -0.518,-0.561 -0.659,-0.812c-0.251,-0.236 -0.428,-0.561 -0.53,-0.977c-0.102,-0.416 -0.129,-0.859 -0.082,-1.329c0.047,-0.471 0.173,-0.895 0.377,-1.271c0.094,-0.22 0.259,-0.494 0.494,-0.824c0.235,-0.329 0.502,-0.667 0.8,-1.012c0.298,-0.345 0.584,-0.659 0.859,-0.941c0.275,-0.283 0.498,-0.479 0.671,-0.589c0.125,-0.125 0.259,-0.254 0.4,-0.388c0.141,-0.133 0.212,-0.2 0.212,-0.2c0.015,-0.078 0.043,-0.118 0.082,-0.118l0.059,0c0.078,-0.047 0.251,-0.125 0.517,-0.235c0.267,-0.11 0.557,-0.314 0.871,-0.612c1.051,-0.502 1.918,-0.863 2.601,-1.082c0.682,-0.22 1.235,-0.33 1.659,-0.33c0.392,0.016 0.757,0.114 1.094,0.294c0.337,0.181 0.624,0.408 0.859,0.683c0.235,0.274 0.377,0.6 0.424,0.977c0.109,0.376 0.07,0.815 -0.118,1.317c-0.188,0.502 -0.455,0.977 -0.8,1.424c-0.345,0.447 -0.714,0.781 -1.106,1c-0.44,0.189 -0.761,0.251 -0.965,0.189c-0.204,-0.063 -0.298,-0.244 -0.283,-0.542c0,-0.125 0.044,-0.274 0.13,-0.447c0.086,-0.172 0.325,-0.478 0.718,-0.918c0.502,-0.737 0.796,-1.306 0.882,-1.706c0.086,-0.4 -0.027,-0.623 -0.341,-0.67c-0.094,-0.032 -0.267,-0.028 -0.518,0.011c-0.251,0.04 -0.525,0.087 -0.823,0.141c-0.299,0.055 -0.554,0.114 -0.765,0.177c-0.212,0.063 -0.318,0.11 -0.318,0.141l-0,0.071c-0,0.047 -0.031,0.063 -0.094,0.047c-0.032,-0 -0.153,0.059 -0.365,0.176c-0.212,0.118 -0.471,0.271 -0.777,0.459c-0.305,0.189 -0.607,0.381 -0.906,0.577c-0.298,0.196 -0.553,0.365 -0.764,0.506c-0.212,0.141 -0.326,0.227 -0.342,0.259c-0.031,0.172 -0.211,0.329 -0.541,0.47c-0.314,0.189 -0.596,0.459 -0.847,0.812c-0.251,0.353 -0.534,0.796 -0.847,1.33c-0.267,0.361 -0.455,0.749 -0.565,1.165c-0.11,0.416 -0.11,0.749 -0,1c0.078,0.251 0.314,0.549 0.706,0.894c0.392,0.345 0.894,0.698 1.506,1.059c0.533,0.298 1.02,0.596 1.459,0.894c0.439,0.299 0.804,0.589 1.094,0.871c0.291,0.283 0.483,0.526 0.577,0.73c0.188,0.266 0.318,0.549 0.388,0.847c0.071,0.298 0.102,0.584 0.094,0.859c-0.007,0.274 -0.043,0.514 -0.105,0.718c-0.11,0.251 -0.295,0.514 -0.554,0.788c-0.258,0.275 -0.482,0.404 -0.67,0.388c-0.173,0.047 -0.302,0.102 -0.389,0.165c-0.086,0.063 -0.184,0.118 -0.294,0.165c-0.11,0.063 -0.349,0.129 -0.717,0.2c-0.369,0.07 -0.777,0.121 -1.224,0.153c-0.447,0.031 -0.851,0.039 -1.212,0.023Z" style="fill-rule:nonzero;"/><path d="M56.802,18.545c-0.063,-0.125 -0.161,-0.231 -0.294,-0.317c-0.134,-0.086 -0.2,-0.161 -0.2,-0.224c-0,-0.063 -0.016,-0.141 -0.047,-0.235c-0.032,-0.094 -0.079,-0.173 -0.141,-0.235c-0.079,-0.095 -0.067,-0.314 0.035,-0.659c0.102,-0.346 0.27,-0.773 0.506,-1.283c0.235,-0.51 0.502,-1.039 0.8,-1.588c0.125,-0.126 0.251,-0.291 0.376,-0.495c0.126,-0.204 0.22,-0.337 0.283,-0.4c-0,-0.062 0.023,-0.121 0.07,-0.176c0.048,-0.055 0.102,-0.083 0.165,-0.083l0.047,-0.211c0.016,-0.079 0.102,-0.212 0.259,-0.4c0.157,-0.189 0.345,-0.397 0.565,-0.624c0.22,-0.228 0.451,-0.447 0.694,-0.659c0.243,-0.212 0.443,-0.365 0.6,-0.459c0.33,-0.22 0.671,-0.341 1.024,-0.365c0.353,-0.023 0.655,0.067 0.906,0.271c0.047,0.047 0.133,0.129 0.259,0.247c0.125,0.118 0.274,0.251 0.447,0.4c0.173,0.149 0.337,0.294 0.494,0.435l0.871,0.777l-0.424,1.177c-0.204,0.627 -0.255,1.176 -0.153,1.647c0.102,0.471 0.255,0.879 0.459,1.224c0.079,0.172 0.22,0.325 0.424,0.459c0.204,0.133 0.416,0.215 0.635,0.247c0.126,0.016 0.243,0.063 0.353,0.141c0.11,0.078 0.165,0.204 0.165,0.377c0,0.235 -0.043,0.411 -0.129,0.529c-0.087,0.118 -0.208,0.192 -0.365,0.224c-0.518,0.062 -1.004,-0.04 -1.459,-0.306c-0.455,-0.267 -0.871,-0.761 -1.248,-1.483c-0.062,-0.094 -0.145,-0.271 -0.247,-0.529c-0.102,-0.259 -0.16,-0.428 -0.176,-0.506c-0.063,0.078 -0.169,0.207 -0.318,0.388c-0.149,0.18 -0.27,0.318 -0.365,0.412c-1.114,1.129 -2.071,1.879 -2.871,2.247c-0.8,0.369 -1.467,0.381 -2,0.035Zm0.988,-1.529c0.032,0.078 0.2,0.055 0.506,-0.071c0.306,-0.125 0.655,-0.345 1.048,-0.659c0.533,-0.455 1.039,-0.914 1.518,-1.376c0.478,-0.463 0.882,-0.93 1.211,-1.401l0.518,-0.847c-0.157,-0.361 -0.317,-0.604 -0.482,-0.729c-0.165,-0.126 -0.31,-0.189 -0.436,-0.189c-0.204,0 -0.486,0.169 -0.847,0.506c-0.361,0.338 -0.753,0.797 -1.176,1.377c-0.424,0.581 -0.84,1.247 -1.248,2c-0.172,0.33 -0.317,0.644 -0.435,0.942c-0.118,0.298 -0.177,0.447 -0.177,0.447Z" style="fill-rule:nonzero;"/><path d="M67.298,18.522c-0.141,-0.11 -0.259,-0.231 -0.353,-0.365c-0.094,-0.133 -0.118,-0.357 -0.071,-0.671c0.047,-0.439 0.11,-0.827 0.189,-1.164c0.078,-0.338 0.172,-0.726 0.282,-1.165c0.031,-0.189 0.122,-0.51 0.271,-0.965c0.149,-0.455 0.325,-0.949 0.529,-1.483c0.204,-0.533 0.416,-1.039 0.635,-1.518c0.22,-0.478 0.408,-0.835 0.565,-1.07c0.141,-0.11 0.326,-0.161 0.553,-0.153c0.228,0.007 0.404,0.074 0.53,0.2c0.172,0.141 0.212,0.388 0.117,0.741c-0.094,0.353 -0.329,0.906 -0.706,1.659c-0.141,0.345 -0.262,0.624 -0.364,0.835c-0.102,0.212 -0.157,0.353 -0.165,0.424c-0.008,0.071 0.043,0.075 0.153,0.012c0.094,-0.173 0.267,-0.373 0.518,-0.6c0.251,-0.228 0.517,-0.451 0.8,-0.671c0.282,-0.22 0.549,-0.416 0.8,-0.588c0.251,-0.173 0.424,-0.283 0.518,-0.33c0.125,-0.078 0.27,-0.145 0.435,-0.2c0.165,-0.055 0.279,-0.098 0.341,-0.129c0.361,-0.173 0.738,-0.236 1.13,-0.189c0.392,0.048 0.635,0.189 0.729,0.424c0.016,0.126 0.067,0.22 0.153,0.282c0.087,0.063 0.13,0.095 0.13,0.095c0.063,-0 0.098,0.023 0.106,0.07c0.008,0.047 0.012,0.071 0.012,0.071c-0,0.11 -0.091,0.204 -0.271,0.282c-0.181,0.079 -0.396,0.126 -0.647,0.141c-0.204,0.016 -0.385,0.055 -0.542,0.118c-0.156,0.063 -0.345,0.141 -0.564,0.235c-0.597,0.346 -1.154,0.675 -1.671,0.989c-0.518,0.314 -1.028,0.745 -1.53,1.294c-0.11,0.126 -0.223,0.263 -0.341,0.412c-0.118,0.149 -0.239,0.326 -0.365,0.529c-0.078,0.079 -0.157,0.252 -0.235,0.518c-0.079,0.267 -0.145,0.522 -0.2,0.765c-0.055,0.243 -0.083,0.388 -0.083,0.435c0,0 -0.023,0.075 -0.07,0.224c-0.047,0.149 -0.126,0.294 -0.236,0.435c-0.188,0.251 -0.353,0.389 -0.494,0.412c-0.141,0.024 -0.337,-0.09 -0.588,-0.341Z" style="fill-rule:nonzero;"/><path d="M77.347,18.71c-0.126,0.032 -0.291,0.043 -0.495,0.036c-0.204,-0.008 -0.38,-0.032 -0.529,-0.071c-0.149,-0.039 -0.224,-0.082 -0.224,-0.13c0,-0.078 -0.039,-0.117 -0.117,-0.117c-0,-0 -0.051,-0.043 -0.153,-0.13c-0.102,-0.086 -0.224,-0.16 -0.365,-0.223c-0.141,-0.22 -0.22,-0.463 -0.235,-0.73c-0.016,-0.266 0.062,-0.714 0.235,-1.341c0.031,-0.424 0.18,-0.906 0.447,-1.447c0.267,-0.542 0.592,-1.083 0.977,-1.624c0.384,-0.541 0.788,-1.028 1.212,-1.459c0.423,-0.432 0.808,-0.749 1.153,-0.953c0.219,-0.22 0.494,-0.338 0.824,-0.353c0.329,-0.016 0.635,0.055 0.917,0.211c0.157,0.079 0.322,0.216 0.495,0.412c0.172,0.196 0.333,0.404 0.482,0.624c0.149,0.22 0.271,0.431 0.365,0.635c0.047,0.173 0.078,0.326 0.094,0.459c0.016,0.134 0.023,0.294 0.023,0.483c0,0.188 -0.023,0.47 -0.07,0.847c-0.079,0.282 -0.145,0.608 -0.2,0.976c-0.055,0.369 -0.083,0.703 -0.083,1.001c-0.031,0.298 0.004,0.51 0.106,0.635c0.102,0.126 0.255,0.133 0.459,0.024c0.188,-0.095 0.377,-0.126 0.565,-0.095c0.188,0.032 0.329,0.106 0.424,0.224c0.094,0.118 0.117,0.286 0.07,0.506c-0.031,0.204 -0.141,0.4 -0.329,0.588c-0.189,0.189 -0.412,0.349 -0.671,0.483c-0.259,0.133 -0.506,0.2 -0.741,0.2c-0.173,-0 -0.338,-0.094 -0.494,-0.283c-0.157,-0.188 -0.299,-0.423 -0.424,-0.706c-0.126,-0.282 -0.235,-0.564 -0.33,-0.847l-0.141,-0.541l-0.965,0.894c-0.204,0.22 -0.404,0.42 -0.6,0.6c-0.196,0.181 -0.317,0.31 -0.364,0.389c-0.079,0.141 -0.228,0.278 -0.448,0.411c-0.219,0.134 -0.51,0.271 -0.87,0.412Zm0.259,-1.671c0.266,-0.157 0.549,-0.376 0.847,-0.659c0.298,-0.282 0.588,-0.592 0.87,-0.929c0.283,-0.337 0.534,-0.663 0.754,-0.977c0.266,-0.361 0.466,-0.682 0.6,-0.965c0.133,-0.282 0.231,-0.557 0.294,-0.823c-0.063,-0.173 -0.161,-0.357 -0.294,-0.553c-0.134,-0.196 -0.255,-0.302 -0.365,-0.318c-0.298,-0 -0.628,0.188 -0.989,0.565c-0.36,0.376 -0.721,0.816 -1.082,1.318c-0.063,0.078 -0.145,0.204 -0.247,0.376c-0.102,0.173 -0.2,0.334 -0.294,0.483c-0.094,0.149 -0.157,0.247 -0.189,0.294c-0.047,0.063 -0.129,0.227 -0.247,0.494c-0.117,0.267 -0.231,0.537 -0.341,0.812c-0.11,0.274 -0.165,0.459 -0.165,0.553c0,0.094 0.012,0.196 0.036,0.306c0.023,0.11 0.098,0.18 0.223,0.212c0.126,0.031 0.322,-0.032 0.589,-0.189Z" style="fill-rule:nonzero;"/><path d="M87.066,19.181c-0.439,0.016 -0.843,-0.039 -1.212,-0.165c-0.369,-0.125 -0.679,-0.31 -0.93,-0.553c-0.251,-0.243 -0.408,-0.514 -0.47,-0.812c-0.063,-0.188 -0.087,-0.321 -0.071,-0.4c0.016,-0.078 0.079,-0.141 0.188,-0.188c0.11,0.016 0.216,0.055 0.318,0.118c0.102,0.062 0.232,0.133 0.388,0.211c0.236,0.204 0.518,0.318 0.848,0.342c0.329,0.023 0.627,-0.02 0.894,-0.13c0.267,-0.11 0.416,-0.259 0.447,-0.447c0,-0.063 -0.027,-0.18 -0.082,-0.353c-0.055,-0.173 -0.122,-0.353 -0.2,-0.541c-0.408,-0.581 -0.695,-1.157 -0.859,-1.73c-0.165,-0.573 -0.247,-1.071 -0.247,-1.494c-0,-0.267 0.09,-0.553 0.27,-0.859c0.181,-0.306 0.42,-0.577 0.718,-0.812c0.298,-0.283 0.627,-0.545 0.988,-0.789c0.361,-0.243 0.726,-0.451 1.095,-0.623c0.368,-0.173 0.694,-0.29 0.976,-0.353c0.204,-0 0.455,0.019 0.753,0.059c0.298,0.039 0.502,0.098 0.612,0.176c0.188,0.094 0.365,0.298 0.53,0.612c0.164,0.314 0.247,0.604 0.247,0.871c-0,0.11 -0.043,0.255 -0.13,0.435c-0.086,0.181 -0.192,0.381 -0.317,0.6c-0.063,0.157 -0.13,0.306 -0.2,0.447c-0.071,0.142 -0.114,0.251 -0.13,0.33c-0.094,0.188 -0.223,0.274 -0.388,0.259c-0.165,-0.016 -0.326,-0.102 -0.483,-0.259c-0.156,-0.157 -0.266,-0.345 -0.329,-0.565c-0.031,-0.235 -0.02,-0.431 0.035,-0.588c0.055,-0.157 0.122,-0.306 0.2,-0.447c0.11,-0.126 0.161,-0.212 0.153,-0.259c-0.008,-0.047 -0.082,-0.071 -0.223,-0.071c-0.11,0 -0.302,0.059 -0.577,0.177c-0.274,0.117 -0.565,0.274 -0.871,0.47c-0.305,0.196 -0.576,0.404 -0.811,0.624c-0.251,0.251 -0.412,0.451 -0.483,0.6c-0.07,0.149 -0.106,0.349 -0.106,0.6c0,0.22 0.051,0.486 0.153,0.8c0.102,0.314 0.208,0.541 0.318,0.683c-0,0.015 0.051,0.113 0.153,0.294c0.102,0.18 0.216,0.38 0.341,0.6c0.502,1.067 0.616,1.843 0.341,2.33c-0.274,0.486 -0.89,0.753 -1.847,0.8Z" style="fill-rule:nonzero;"/></g><circle cx="14.172" cy="12.25" r="12.25" style="fill:url(#_Linear2);"/></g><g><path d="M15.629,14.307c0,0 1.308,-0.008 2.487,-0.591c4.349,-2.15 5.881,2.84 3.117,3.04c-0,0 -0.774,0.083 -1.246,-0.76c0,-0 0.916,0.586 1.544,-0.234c-0,0 0.15,-1.39 -1.485,-1.711c-0,0 -0.925,-0.147 -1.924,0.174c0,0 -1.191,0.403 -2.493,0.082Z" style="fill:url(#_Linear3);"/><path d="M21.531,15.762c-0,0 1.488,-1.49 -0.684,-2.501c0,0 -1.168,-0.34 -2.731,0.455c-0,0 -1.199,0.595 -2.487,0.591c0,0 1.155,0.328 2.292,-0.025c-0,-0 3.515,-1.198 3.61,1.48Z" style="fill:url(#_Linear4);"/><path d="M14.862,12.705c0,0 2.123,-3.128 -0.546,-6.351c0,-0 -2.207,1.798 -1.031,5.204c-0,0 0.208,0.783 1.65,2.609c0,-0 2.112,2.439 -0.634,5.623c0,-0 -2.772,-2.217 -0.56,-5.439c0,-0 -1.058,2.216 0.511,4.331c0,0 2.235,-2.303 -0.25,-5.215c0,0 -3.252,-3.111 -1.007,-7.113l1.193,-1.644c0,0 1.994,1.674 2.042,4.556c0,-0 0.227,1.963 -1.368,3.439Z" style="fill:url(#_Linear5);"/><path d="M15.813,13.508c-0,-0 0.795,-3.093 4.12,-3.705c0,0 -0.405,2.974 -2.887,3.705c-0,-0 3.733,-0.064 3.767,-4.594c0,0 -4.465,0.356 -5,4.594Z" style="fill:url(#_Linear6);"/><path d="M12.715,13.508c-0,-0 -0.796,-3.093 -4.12,-3.705c-0,0 0.405,2.974 2.887,3.705c-0,-0 -3.733,-0.064 -3.768,-4.594c0,0 4.466,0.356 5.001,4.594Z" style="fill:url(#_Linear7);"/><path d="M12.715,14.307c-0,0 -1.308,-0.008 -2.487,-0.591c-4.349,-2.15 -5.881,2.84 -3.117,3.04c0,0 0.774,0.083 1.246,-0.76c-0,-0 -0.916,0.586 -1.544,-0.234c0,0 -0.15,-1.39 1.485,-1.711c0,0 0.925,-0.147 1.924,0.174c-0,0 1.191,0.403 2.493,0.082Z" style="fill:url(#_Linear8);"/><path d="M6.813,15.762c0,0 -1.488,-1.49 0.684,-2.501c-0,0 1.168,-0.34 2.731,0.455c0,0 1.199,0.595 2.487,0.591c-0,0 -1.155,0.328 -2.292,-0.025c-0,-0 -3.515,-1.198 -3.61,1.48Z" style="fill:url(#_Linear9);"/></g></g></g><defs><linearGradient id="_Linear2" x1="0" y1="0" x2="1" y2="0" gradientUnits="userSpaceOnUse" gradientTransform="matrix(-13.6983,-19.5717,19.5717,-13.6983,19.922,23)"><stop offset="0" style="stop-color:#fce7ff;stop-opacity:1"/><stop offset="1" style="stop-color:#dbf8ff;stop-opacity:1"/></linearGradient><linearGradient id="_Linear3" x1="0" y1="0" x2="1" y2="0" gradientUnits="userSpaceOnUse" gradientTransform="matrix(1.93524e-16,-3.16048,-3.16048,-1.93524e-16,21.3589,16.6638)"><stop offset="0" style="stop-color:#05ac4c;stop-opacity:1"/><stop offset="1" style="stop-color:#4ab148;stop-opacity:1"/></linearGradient><linearGradient id="_Linear4" x1="0" y1="0" x2="1" y2="0" gradientUnits="userSpaceOnUse" gradientTransform="matrix(6.38767,0,0,-6.38767,16.031,14.3894)"><stop offset="0" style="stop-color:#57b347;stop-opacity:1"/><stop offset="1" style="stop-color:#02753d;stop-opacity:1"/></linearGradient><linearGradient id="_Linear5" x1="0" y1="0" x2="1" y2="0" gradientUnits="userSpaceOnUse" gradientTransform="matrix(-0.0127179,15.0795,15.0795,0.0127179,14.172,4.71027)"><stop offset="0" style="stop-color:#5b2d8f;stop-opacity:1"/><stop offset="1" style="stop-color:#9d248a;stop-opacity:1"/></linearGradient><linearGradient id="_Linear6" x1="0" y1="0" x2="1" y2="0" gradientUnits="userSpaceOnUse" gradientTransform="matrix(-0.0127179,15.0795,15.0795,0.0127179,14.172,4.71027)"><stop offset="0" style="stop-color:#5b2d8f;stop-opacity:1"/><stop offset="1" style="stop-color:#9d248a;stop-opacity:1"/></linearGradient><linearGradient id="_Linear7" x1="0" y1="0" x2="1" y2="0" gradientUnits="userSpaceOnUse" gradientTransform="matrix(-0.0127179,15.0795,15.0795,0.0127179,14.172,4.71027)"><stop offset="0" style="stop-color:#5b2d8f;stop-opacity:1"/><stop offset="1" style="stop-color:#9d248a;stop-opacity:1"/></linearGradient><linearGradient id="_Linear8" x1="0" y1="0" x2="1" y2="0" gradientUnits="userSpaceOnUse" gradientTransform="matrix(1.93524e-16,-3.16048,-3.16048,-1.93524e-16,6.98519,16.6638)"><stop offset="0" style="stop-color:#05ac4c;stop-opacity:1"/><stop offset="1" style="stop-color:#4ab148;stop-opacity:1"/></linearGradient><linearGradient id="_Linear9" x1="0" y1="0" x2="1" y2="0" gradientUnits="userSpaceOnUse" gradientTransform="matrix(-6.38684,-7.82163e-16,-7.82163e-16,6.38684,12.3122,14.3894)"><stop offset="0" style="stop-color:#57b347;stop-opacity:1"/><stop offset="1" style="stop-color:#02753d;stop-opacity:1"/></linearGradient></defs></svg>