<svg width="166" height="44" viewBox="0 0 166 44" fill="none" xmlns="http://www.w3.org/2000/svg">
<g clip-path="url(#clip0_2084_106)">
<mask id="mask0_2084_106" style="mask-type:luminance" maskUnits="userSpaceOnUse" x="0" y="1" width="173" height="42">
<path d="M173 1H0V42.16H173V1Z" fill="white"/>
</mask>
<g mask="url(#mask0_2084_106)">
<path d="M56.0491 34.726C55.8631 34.4371 55.4793 34.2523 54.8943 34.1733C54.311 34.0943 53.5553 34.0809 52.6271 34.133C52.2551 34.1867 51.8916 34.1666 51.5332 34.0742C51.1748 33.9818 50.889 33.8373 50.6777 33.6391C50.4646 33.4408 50.3852 33.2375 50.4393 33.0259C50.4646 32.71 50.7707 32.4261 51.354 32.1758C51.9373 31.9255 52.7995 31.7877 53.9408 31.7608L55.8902 31.7222L56.2875 30.9309C56.394 30.6403 56.5124 30.2656 56.6459 29.8036C56.7778 29.3433 56.9384 28.8091 57.1227 28.2026C57.2292 27.8347 57.3882 27.3256 57.6012 26.6805C57.8125 26.0354 58.0391 25.3499 58.2775 24.6242C58.5159 23.9001 58.7289 23.2483 58.9132 22.667C59.0992 22.0874 59.2192 21.6791 59.2716 21.4423C59.3781 21.2054 59.5235 20.8022 59.7095 20.236C59.8955 19.6699 60.0747 19.0903 60.2472 18.4972C60.4196 17.9042 60.5312 17.4758 60.5853 17.212C61.2751 15.1288 61.7249 13.6538 61.9379 12.7835C62.1492 11.9133 62.2033 11.4664 62.0968 11.4395C61.9903 11.4395 61.7316 11.453 61.3208 11.4799C60.9099 11.5051 60.4653 11.5387 59.9885 11.5773C59.51 11.6176 59.0789 11.663 58.6951 11.7167C58.3096 11.7688 58.078 11.8209 57.9985 11.8747C57.8666 12.0595 57.6401 12.0779 57.3222 11.9335C57.0044 11.789 56.8049 11.584 56.7254 11.3203C56.6983 11.0834 56.6916 10.8868 56.7051 10.7272C56.7186 10.5693 56.7913 10.4517 56.9249 10.3727C57.1092 10.2131 57.4811 10.0367 58.0391 9.8385C58.5953 9.64026 59.2192 9.46218 59.909 9.30426C60.5988 9.14634 61.2481 9.02706 61.8584 8.9481C62.3098 8.89602 62.7596 8.7969 63.211 8.65242C63.6624 8.50794 64.0192 8.32986 64.2846 8.11818C64.5247 8.03922 64.7563 7.9737 64.9812 7.92162C65.2077 7.86786 65.4394 7.85442 65.6778 7.8813C65.8908 8.01234 66.2543 8.07954 66.7717 8.07954C67.289 8.07954 67.8402 8.0661 68.4235 8.03922C69.9079 7.90818 70.9241 7.89474 71.4668 8.00058C72.0112 8.10474 72.3747 8.3433 72.5607 8.71122C72.6943 9.21186 72.701 9.60834 72.581 9.8973C72.4609 10.1879 72.1769 10.319 71.7255 10.2938C71.4871 10.3459 71.0898 10.3912 70.5318 10.4315C69.9756 10.4702 69.3517 10.5038 68.6619 10.5307C66.8308 10.6886 65.8502 10.8734 65.7183 11.0834C65.6118 11.1892 65.5256 11.2951 65.4597 11.3992C65.392 11.5051 65.3058 11.6243 65.201 11.7554C65.2263 11.8612 65.1672 12.1905 65.0218 12.7449C64.8747 13.2976 64.6971 13.8638 64.4841 14.4451C64.3776 14.7861 64.2187 15.275 64.0073 15.9067C63.7943 16.54 63.5762 17.1919 63.3496 17.8639C63.1248 18.5359 62.9185 19.1423 62.7342 19.6833C62.5482 20.2226 62.4147 20.5855 62.3352 20.7703C62.2287 21.0071 62.1425 21.2642 62.0765 21.5414C62.0106 21.8186 61.9649 22.0219 61.9379 22.1546C61.5659 23.4448 61.2481 24.5318 60.9826 25.4155C60.7172 26.2991 60.4788 27.0753 60.2658 27.749C60.0544 28.421 59.8549 29.0594 59.6689 29.6659C59.4846 30.2723 59.2851 30.9443 59.0721 31.6819C59.0721 31.6819 59.2851 31.6617 59.7095 31.6231C60.1339 31.5827 60.6918 31.5374 61.3799 31.4836C62.6277 31.3526 63.5086 31.2736 64.0259 31.2467C64.5433 31.2215 64.8747 31.2535 65.0218 31.3459C65.1672 31.4383 65.2804 31.6029 65.3599 31.8398C65.8908 32.5521 65.9229 33.0729 65.4597 33.4022C64.9947 33.7315 64.0192 33.8827 62.5347 33.8558C61.1551 33.9095 60.1136 33.9549 59.4119 33.9952C58.7086 34.0339 58.2369 34.0943 57.9985 34.1733C57.7601 34.2523 57.6147 34.3833 57.5606 34.5681C57.5877 34.8587 57.4355 35.0167 57.1041 35.0419C56.771 35.0687 56.4211 34.9629 56.0491 34.726Z" fill="white"/>
<path d="M66.7125 36.5841C66.4471 36.5841 66.2543 36.5522 66.136 36.485C66.016 36.4195 65.9027 36.2951 65.7979 36.1103C65.7979 35.9255 65.8503 35.7676 65.9568 35.6349C66.0633 35.5039 66.2087 35.3459 66.3947 35.1611C66.6601 34.8974 66.9509 34.5748 67.2688 34.1918C67.5883 33.8104 67.8859 33.4223 68.1649 33.0259C68.4438 32.6311 68.6484 32.3152 68.782 32.0767C68.8868 31.7877 68.9866 31.445 69.0795 31.0502C69.1725 30.6537 69.2723 30.2186 69.3788 29.7448C69.3788 29.5331 69.3856 29.3433 69.3974 29.1719C69.4109 29.0006 69.4718 28.8611 69.5766 28.757C69.7896 28.5722 69.9942 28.4663 70.1937 28.4395C70.3932 28.4143 70.5792 28.5386 70.7517 28.8158C70.9241 29.093 71.0628 29.5869 71.1693 30.2975C71.2741 30.8788 71.2741 31.4047 71.1693 31.8801C71.0628 32.3539 70.8497 32.9335 70.5319 33.6189C70.4795 33.8037 70.3002 34.0876 69.9942 34.469C69.6899 34.852 69.3856 35.2065 69.0795 35.5375C68.7752 35.8667 68.5825 36.0314 68.503 36.0314C68.3965 36.0314 68.3035 36.0633 68.224 36.1305C68.1446 36.196 68.0516 36.2817 67.9451 36.3875C67.8402 36.4917 67.6813 36.5522 67.4683 36.5639C67.2569 36.5774 67.0033 36.5841 66.7125 36.5841Z" fill="white"/>
<path d="M90.01 35.5559C89.5315 35.4249 89.1477 35.3123 88.8552 35.2199C88.5644 35.1275 88.419 35.0822 88.419 35.0822C88.4714 34.9511 88.4511 34.8318 88.3581 34.726C88.2651 34.6202 88.0741 34.5546 87.7816 34.5278C87.3843 34.2909 87.0056 33.975 86.6471 33.5802C86.2887 33.1838 85.9844 32.789 85.7324 32.3942C85.4805 31.9977 85.3013 31.6818 85.1948 31.445C85.0088 31.0502 84.9564 30.8049 85.0359 30.7142C85.1153 30.6218 85.3013 30.5092 85.5938 30.3765C85.8846 30.1665 86.1365 30.0674 86.3496 30.0808C86.5609 30.0942 86.7739 30.3244 86.9853 30.773C87.3302 31.3794 87.9016 31.8599 88.6963 32.2161C89.4926 32.5722 90.3938 32.7486 91.4031 32.7486C92.4108 32.7486 93.3914 32.5386 94.3467 32.117C95.2225 31.7474 95.7517 31.3324 95.9376 30.8721C96.1236 30.4101 95.9917 29.8372 95.5403 29.1518C95.4609 28.9401 95.3611 28.7687 95.2411 28.6377C95.1227 28.5066 94.9435 28.3353 94.7051 28.1236C94.4667 27.9136 94.0948 27.5709 93.5909 27.0954C93.1936 26.9106 92.8284 26.7393 92.497 26.5814C92.1656 26.4234 91.814 26.2521 91.442 26.0673C91.0176 25.8573 90.5138 25.5532 89.9305 25.1584C89.3472 24.7636 88.8028 24.3218 88.299 23.8346C87.7951 23.3457 87.4232 22.8921 87.1848 22.4704C86.7604 22.0739 86.4611 21.5279 86.2887 20.829C86.1162 20.1302 86.0706 19.3859 86.1501 18.5963C86.2295 17.805 86.4425 17.0927 86.7875 16.461C86.9464 16.0914 87.2253 15.6311 87.6227 15.0767C88.02 14.524 88.4714 13.9562 88.9752 13.3766C89.4791 12.797 89.9626 12.2694 90.4276 11.7957C90.8925 11.3202 91.2696 10.991 91.5621 10.8062C91.7734 10.5962 91.9999 10.3794 92.2383 10.1543C92.4767 9.93087 92.5968 9.81831 92.5968 9.81831C92.6221 9.68727 92.6695 9.62007 92.7354 9.62007H92.8352C92.967 9.54111 93.2595 9.41007 93.7093 9.22527C94.1607 9.04047 94.651 8.69775 95.1819 8.19711C96.9588 7.35375 98.4247 6.74727 99.5795 6.37935C100.733 6.00975 101.667 5.82495 102.384 5.82495C103.047 5.85183 103.664 6.01647 104.234 6.31887C104.804 6.62295 105.289 7.00431 105.686 7.46631C106.084 7.92663 106.324 8.47431 106.403 9.10767C106.587 9.73935 106.522 10.4769 106.204 11.3202C105.886 12.1636 105.434 12.9616 104.851 13.7126C104.268 14.4635 103.644 15.0246 102.981 15.3926C102.237 15.7101 101.695 15.8142 101.35 15.7101C101.005 15.6042 100.846 15.3002 100.871 14.7995C100.871 14.5895 100.946 14.3392 101.091 14.0486C101.236 13.7596 101.64 13.2455 102.305 12.5063C103.154 11.2682 103.651 10.3122 103.796 9.64023C103.942 8.96823 103.75 8.59359 103.22 8.51463C103.061 8.46087 102.768 8.46759 102.344 8.53311C101.919 8.60031 101.456 8.67927 100.952 8.76999C100.447 8.86239 100.016 8.96151 99.6589 9.06735C99.3005 9.17319 99.1213 9.25215 99.1213 9.30423V9.42351C99.1213 9.50247 99.0689 9.52935 98.9623 9.50247C98.9082 9.50247 98.7037 9.60159 98.3452 9.79815C97.9868 9.99639 97.5489 10.2534 97.0315 10.5693C96.5159 10.8868 96.0053 11.2094 95.4997 11.5386C94.9959 11.8679 94.5648 12.1518 94.208 12.3887C93.8496 12.6256 93.6569 12.7701 93.6298 12.8238C93.5774 13.1128 93.2731 13.3766 92.7151 13.6134C92.1842 13.931 91.7075 14.3846 91.2831 14.9776C90.8587 15.5706 90.3802 16.3149 89.851 17.212C89.3996 17.8185 89.0818 18.4703 88.8958 19.1692C88.7098 19.8681 88.7098 20.4275 88.8958 20.8492C89.0277 21.2709 89.4267 21.7715 90.0894 22.3511C90.7522 22.9307 91.6009 23.5238 92.6357 24.1302C93.5368 24.6309 94.3602 25.1315 95.1024 25.6322C95.8446 26.1345 96.4618 26.6217 96.9521 27.0954C97.4441 27.5709 97.7687 27.9791 97.9276 28.3218C98.2455 28.7687 98.4653 29.2442 98.5836 29.7448C98.7037 30.2454 98.7561 30.7259 98.7425 31.1879C98.7307 31.6482 98.6698 32.0514 98.565 32.3942C98.379 32.8158 98.0663 33.2577 97.6284 33.718C97.1922 34.18 96.8134 34.3967 96.4956 34.3698C96.2031 34.4488 95.985 34.5412 95.8379 34.647C95.6925 34.7529 95.5268 34.8453 95.3408 34.9242C95.1548 35.0301 94.7507 35.141 94.1286 35.2602C93.5047 35.3778 92.8149 35.4635 92.0591 35.5173C91.3034 35.5694 90.6203 35.5828 90.01 35.5559Z" fill="white"/>
<path d="M103.299 32.1556C103.192 31.9456 103.027 31.7675 102.802 31.623C102.575 31.4786 102.464 31.3526 102.464 31.2467C102.464 31.1409 102.437 31.0098 102.384 30.8519C102.33 30.694 102.251 30.5613 102.146 30.4571C102.012 30.2975 102.033 29.9296 102.205 29.35C102.378 28.7687 102.662 28.0514 103.061 27.1946C103.458 26.3378 103.909 25.449 104.413 24.5267C104.625 24.315 104.838 24.0378 105.049 23.6951C105.262 23.3524 105.421 23.129 105.527 23.0231C105.527 22.919 105.566 22.8198 105.646 22.7274C105.727 22.635 105.818 22.588 105.925 22.588L106.004 22.2335C106.031 22.1008 106.177 21.8774 106.442 21.5615C106.708 21.244 107.025 20.8946 107.397 20.5132C107.769 20.1302 108.16 19.7622 108.571 19.4061C108.982 19.0499 109.32 18.7929 109.585 18.635C110.143 18.2654 110.72 18.0621 111.316 18.0218C111.913 17.9831 112.424 18.1343 112.848 18.477C112.928 18.556 113.073 18.6938 113.286 18.892C113.497 19.0902 113.749 19.3137 114.042 19.564C114.334 19.8143 114.612 20.0579 114.877 20.2948L116.35 21.6002L115.633 23.5775C115.288 24.6309 115.202 25.5532 115.374 26.3445C115.547 27.1358 115.805 27.8212 116.15 28.4008C116.284 28.6898 116.522 28.9468 116.867 29.1719C117.212 29.3954 117.57 29.5331 117.941 29.5869C118.154 29.6138 118.352 29.6927 118.537 29.8238C118.723 29.9548 118.816 30.1665 118.816 30.4571C118.816 30.8519 118.744 31.1476 118.598 31.3458C118.451 31.5441 118.247 31.6684 117.981 31.7222C117.105 31.8263 116.284 31.655 115.514 31.2081C114.745 30.7595 114.042 29.9296 113.404 28.7166C113.3 28.5587 113.159 28.2614 112.987 27.8279C112.814 27.3928 112.716 27.1089 112.689 26.9778C112.583 27.1089 112.404 27.3256 112.152 27.6297C111.9 27.9321 111.695 28.1639 111.535 28.3218C109.651 30.2186 108.033 31.4786 106.68 32.0968C105.328 32.7167 104.2 32.7369 103.299 32.1556ZM104.969 29.5869C105.024 29.7179 105.308 29.6793 105.825 29.4676C106.342 29.2576 106.932 28.888 107.597 28.3605C108.498 27.5961 109.353 26.825 110.163 26.0488C110.972 25.271 111.655 24.4864 112.211 23.6951L113.087 22.2722C112.821 21.6657 112.551 21.2574 112.272 21.0474C111.993 20.8358 111.748 20.7299 111.535 20.7299C111.19 20.7299 110.713 21.0138 110.102 21.58C109.492 22.1478 108.829 22.919 108.114 23.8934C107.397 24.8694 106.694 25.9883 106.004 27.2534C105.713 27.8078 105.468 28.3353 105.269 28.8359C105.069 29.3366 104.969 29.5869 104.969 29.5869Z" fill="white"/>
<path d="M121.045 32.117C120.807 31.9322 120.607 31.7289 120.448 31.5038C120.289 31.2803 120.249 30.904 120.328 30.3765C120.408 29.639 120.514 28.9871 120.648 28.421C120.78 27.8531 120.938 27.2013 121.124 26.4638C121.177 26.1462 121.331 25.607 121.583 24.8426C121.835 24.0782 122.132 23.2482 122.477 22.3511C122.822 21.4557 123.18 20.6056 123.551 19.8009C123.923 18.9978 124.24 18.3981 124.506 18.0033C124.744 17.8185 125.057 17.7328 125.441 17.7462C125.826 17.758 126.124 17.8706 126.337 18.0822C126.628 18.3191 126.695 18.7341 126.535 19.3271C126.376 19.9202 125.978 20.8492 125.341 22.1142C125.103 22.6938 124.898 23.1626 124.726 23.517C124.553 23.8732 124.46 24.1101 124.447 24.2294C124.433 24.3486 124.519 24.3554 124.705 24.2495C124.864 23.9589 125.157 23.6229 125.581 23.2415C126.006 22.8585 126.455 22.4838 126.934 22.1142C127.411 21.7446 127.862 21.4154 128.286 21.1264C128.711 20.8358 129.003 20.651 129.162 20.572C129.373 20.441 129.619 20.3284 129.898 20.236C130.177 20.1436 130.369 20.0714 130.474 20.0193C131.084 19.7286 131.722 19.6228 132.385 19.7018C133.047 19.7824 133.458 20.0193 133.617 20.4141C133.644 20.6258 133.73 20.7837 133.876 20.8878C134.023 20.9937 134.096 21.0474 134.096 21.0474C134.202 21.0474 134.261 21.0861 134.275 21.165C134.288 21.244 134.295 21.2843 134.295 21.2843C134.295 21.4691 134.141 21.627 133.837 21.7581C133.531 21.8908 133.167 21.9698 132.743 21.995C132.398 22.0218 132.092 22.0874 131.827 22.1932C131.563 22.299 131.243 22.4301 130.873 22.588C129.864 23.1693 128.922 23.722 128.048 24.2495C127.172 24.777 126.31 25.5011 125.461 26.4234C125.275 26.6351 125.084 26.8653 124.885 27.1156C124.685 27.3659 124.481 27.6633 124.267 28.0043C124.136 28.137 124.002 28.4277 123.87 28.8746C123.737 29.3231 123.625 29.7515 123.532 30.1598C123.439 30.568 123.392 30.8116 123.392 30.8906C123.392 30.8906 123.353 31.0166 123.273 31.2669C123.194 31.5172 123.06 31.7608 122.874 31.9977C122.556 32.4194 122.277 32.6512 122.039 32.6898C121.801 32.7302 121.469 32.5386 121.045 32.117Z" fill="white"/>
<path d="M138.035 32.4328C137.822 32.4865 137.543 32.505 137.198 32.4932C136.853 32.4798 136.556 32.4395 136.304 32.374C136.052 32.3084 135.925 32.2362 135.925 32.1556C135.925 32.0245 135.859 31.959 135.727 31.959C135.727 31.959 135.641 31.8868 135.469 31.7406C135.296 31.5961 135.09 31.4718 134.851 31.366C134.613 30.9964 134.479 30.5881 134.454 30.1396C134.427 29.6927 134.559 28.94 134.851 27.8867C134.904 27.1744 135.156 26.3646 135.607 25.4557C136.059 24.5452 136.608 23.6363 137.259 22.7274C137.908 21.8185 138.591 21.0004 139.308 20.2763C140.023 19.5505 140.674 19.018 141.258 18.6752C141.628 18.3056 142.093 18.1074 142.651 18.0822C143.207 18.0553 143.724 18.1746 144.201 18.4367C144.467 18.5694 144.746 18.7996 145.038 19.1288C145.329 19.4581 145.601 19.8076 145.853 20.1772C146.105 20.5468 146.311 20.9012 146.47 21.244C146.55 21.5346 146.602 21.7916 146.629 22.0151C146.656 22.2402 146.668 22.509 146.668 22.8265C146.668 23.1424 146.629 23.6161 146.55 24.2495C146.416 24.7232 146.304 25.2709 146.211 25.8892C146.118 26.5091 146.071 27.0702 146.071 27.5708C146.019 28.0715 146.078 28.4276 146.25 28.6376C146.423 28.8493 146.681 28.8611 147.026 28.678C147.344 28.5184 147.664 28.4663 147.982 28.5184C148.299 28.5721 148.538 28.6964 148.698 28.8947C148.857 29.0929 148.896 29.3752 148.817 29.7448C148.764 30.0875 148.578 30.4168 148.261 30.7326C147.941 31.0501 147.564 31.3189 147.126 31.544C146.688 31.7675 146.271 31.88 145.873 31.88C145.581 31.88 145.302 31.7221 145.038 31.4046C144.773 31.0888 144.533 30.694 144.321 30.2185C144.108 29.7448 143.924 29.271 143.763 28.7956L143.525 27.8867L141.893 29.3886C141.548 29.7582 141.21 30.0942 140.879 30.3966C140.548 30.7007 140.343 30.9174 140.263 31.0501C140.13 31.287 139.878 31.5172 139.506 31.7406C139.136 31.9657 138.644 32.1959 138.035 32.4328ZM138.473 29.6255C138.923 29.3617 139.401 28.9938 139.905 28.5184C140.409 28.0446 140.899 27.5238 141.376 26.9576C141.854 26.3915 142.279 25.8438 142.651 25.3163C143.1 24.7098 143.439 24.1705 143.665 23.6951C143.89 23.2213 144.056 22.7593 144.162 22.3124C144.056 22.0218 143.89 21.7127 143.665 21.3834C143.439 21.0541 143.234 20.876 143.048 20.8492C142.544 20.8492 141.986 21.165 141.376 21.7984C140.767 22.43 140.157 23.1692 139.547 24.0126C139.44 24.1436 139.301 24.3553 139.129 24.6443C138.957 24.9349 138.791 25.2054 138.632 25.4557C138.473 25.706 138.366 25.8707 138.312 25.9496C138.233 26.0555 138.094 26.331 137.895 26.7796C137.697 27.2281 137.504 27.6817 137.318 28.1437C137.132 28.604 137.039 28.9148 137.039 29.0728C137.039 29.2307 137.06 29.402 137.1 29.5868C137.139 29.7716 137.266 29.8892 137.477 29.943C137.69 29.9951 138.022 29.8892 138.473 29.6255Z" fill="white"/>
<path d="M154.467 33.2241C153.725 33.251 153.042 33.1586 152.418 32.9469C151.794 32.7369 151.27 32.4261 150.845 32.0179C150.421 31.6096 150.156 31.1543 150.051 30.6537C149.944 30.3379 149.904 30.1144 149.931 29.9817C149.958 29.8507 150.064 29.7448 150.249 29.6659C150.435 29.6927 150.614 29.7583 150.786 29.8641C150.959 29.9683 151.178 30.0875 151.442 30.2186C151.841 30.5613 152.318 30.7528 152.876 30.7931C153.432 30.8318 153.936 30.7595 154.387 30.5747C154.839 30.3899 155.091 30.1396 155.143 29.8238C155.143 29.7179 155.098 29.5214 155.005 29.2307C154.912 28.9401 154.798 28.6377 154.666 28.3219C153.977 27.3458 153.491 26.3781 153.214 25.4155C152.935 24.4528 152.797 23.6162 152.797 22.9055C152.797 22.457 152.949 21.9765 153.253 21.4624C153.559 20.9483 153.963 20.4931 154.467 20.0983C154.971 19.6228 155.527 19.1827 156.137 18.7727C156.748 18.3645 157.365 18.0151 157.989 17.7261C158.611 17.4355 159.162 17.2389 159.639 17.1331C159.984 17.1331 160.408 17.165 160.912 17.2322C161.416 17.2977 161.761 17.3968 161.947 17.5279C162.265 17.6858 162.564 18.0285 162.843 18.556C163.12 19.0835 163.26 19.5707 163.26 20.0193C163.26 20.2041 163.188 20.4477 163.041 20.7501C162.895 21.0542 162.716 21.3902 162.505 21.7581C162.398 22.0219 162.285 22.2722 162.166 22.5091C162.046 22.7476 161.974 22.9307 161.947 23.0635C161.788 23.3793 161.57 23.5238 161.291 23.4986C161.012 23.4717 160.74 23.3272 160.474 23.0635C160.21 22.7997 160.024 22.4839 159.918 22.1143C159.865 21.7195 159.884 21.3902 159.977 21.1264C160.07 20.8627 160.183 20.6123 160.315 20.3755C160.501 20.1638 160.587 20.0193 160.574 19.9403C160.56 19.8614 160.435 19.8211 160.197 19.8211C160.011 19.8211 159.686 19.9202 159.221 20.1184C158.758 20.315 158.266 20.5787 157.749 20.908C157.233 21.2373 156.775 21.5867 156.377 21.9563C155.953 22.378 155.681 22.714 155.561 22.9643C155.442 23.2147 155.382 23.5507 155.382 23.9723C155.382 24.3419 155.468 24.7888 155.64 25.3163C155.813 25.8439 155.992 26.2252 156.178 26.4638C156.178 26.489 156.264 26.6536 156.437 26.9577C156.609 27.2601 156.802 27.5961 157.013 27.9657C157.862 29.7583 158.055 31.0619 157.59 31.8801C157.126 32.6966 156.085 33.1451 154.467 33.2241Z" fill="white"/>
<path d="M23.9609 42.16C35.3994 42.16 44.6722 32.946 44.6722 21.58C44.6722 10.214 35.3994 1 23.9609 1C12.5223 1 3.24951 10.214 3.24951 21.58C3.24951 32.946 12.5223 42.16 23.9609 42.16Z" fill="url(#paint0_linear_2084_106)"/>
<path fill-rule="evenodd" clip-rule="evenodd" d="M26.4241 25.0357C26.4241 25.0357 28.6355 25.0223 30.6289 24.0428C37.9818 20.4308 40.572 28.814 35.8989 29.15C35.8989 29.15 34.5903 29.2895 33.7922 27.8732C33.7922 27.8732 35.3409 28.8577 36.4027 27.4801C36.4027 27.4801 36.6563 25.1449 33.892 24.6056C33.892 24.6056 32.3281 24.3587 30.639 24.898C30.639 24.898 28.6254 25.575 26.4241 25.0357Z" fill="url(#paint1_linear_2084_106)"/>
<path fill-rule="evenodd" clip-rule="evenodd" d="M36.4027 27.4801C36.4027 27.4801 38.9185 24.9769 35.2463 23.2784C35.2463 23.2784 33.2715 22.7072 30.6289 24.0428C30.6289 24.0428 28.6017 25.0424 26.4241 25.0357C26.4241 25.0357 28.3769 25.5868 30.2992 24.9937C30.2992 24.9937 36.2421 22.9811 36.4027 27.4801Z" fill="url(#paint2_linear_2084_106)"/>
<path fill-rule="evenodd" clip-rule="evenodd" d="M25.1273 22.3444C25.1273 22.3444 28.7167 17.0893 24.2042 11.6747C24.2042 11.6747 20.4728 14.6953 22.4611 20.4174C22.4611 20.4174 22.8127 21.7329 25.2508 24.8005C25.2508 24.8005 28.8216 28.8981 24.1788 34.2472C24.1788 34.2472 19.4922 30.5226 23.232 25.1097C23.232 25.1097 21.4433 28.8325 24.096 32.3857C24.096 32.3857 27.8748 28.5167 23.6733 23.6245C23.6733 23.6245 18.1751 18.3981 21.9708 11.6747L23.9878 8.91278C23.9878 8.91278 27.3591 11.7251 27.4402 16.5669C27.4402 16.5669 27.824 19.8647 25.1273 22.3444Z" fill="url(#paint3_linear_2084_106)"/>
<path fill-rule="evenodd" clip-rule="evenodd" d="M26.7351 23.6934C26.7351 23.6934 28.0792 18.4972 33.7009 17.469C33.7009 17.469 33.0161 22.4654 28.8198 23.6934C28.8198 23.6934 35.1312 23.5859 35.1887 15.9755C35.1887 15.9755 27.6396 16.5736 26.7351 23.6934Z" fill="url(#paint4_linear_2084_106)"/>
<path fill-rule="evenodd" clip-rule="evenodd" d="M21.4973 23.6934C21.4973 23.6934 20.1515 18.4972 14.5315 17.469C14.5315 17.469 15.2163 22.4654 19.4126 23.6934C19.4126 23.6934 13.1012 23.5859 13.042 15.9755C13.042 15.9755 20.5928 16.5736 21.4973 23.6934Z" fill="url(#paint5_linear_2084_106)"/>
<path fill-rule="evenodd" clip-rule="evenodd" d="M21.4974 25.0357C21.4974 25.0357 19.2859 25.0223 17.2925 24.0428C9.93958 20.4308 7.3494 28.814 12.0226 29.15C12.0226 29.15 13.3312 29.2895 14.1292 27.8732C14.1292 27.8732 12.5805 28.8577 11.5187 27.4801C11.5187 27.4801 11.2651 25.1449 14.0294 24.6056C14.0294 24.6056 15.5934 24.3587 17.2824 24.898C17.2824 24.898 19.296 25.575 21.4974 25.0357Z" fill="url(#paint6_linear_2084_106)"/>
<path fill-rule="evenodd" clip-rule="evenodd" d="M11.5187 27.4801C11.5187 27.4801 9.00293 24.9769 12.6752 23.2784C12.6752 23.2784 14.6499 22.7072 17.2925 24.0428C17.2925 24.0428 19.3197 25.0424 21.4974 25.0357C21.4974 25.0357 19.5446 25.5868 17.6222 24.9937C17.6222 24.9937 11.6793 22.9811 11.5187 27.4801Z" fill="url(#paint7_linear_2084_106)"/>
</g>
</g>
<defs>
<linearGradient id="paint0_linear_2084_106" x1="33.6825" y1="39.64" x2="10.7198" y2="6.62229" gradientUnits="userSpaceOnUse">
<stop stop-color="#FCE7FF"/>
<stop offset="1" stop-color="#DBF8FF"/>
</linearGradient>
<linearGradient id="paint1_linear_2084_106" x1="36.1117" y1="28.9951" x2="36.1117" y2="23.6855" gradientUnits="userSpaceOnUse">
<stop stop-color="#05AC4C"/>
<stop offset="1" stop-color="#4AB148"/>
</linearGradient>
<linearGradient id="paint2_linear_2084_106" x1="27.1037" y1="25.1742" x2="37.9035" y2="25.1742" gradientUnits="userSpaceOnUse">
<stop stop-color="#57B347"/>
<stop offset="1" stop-color="#02753D"/>
</linearGradient>
<linearGradient id="paint3_linear_2084_106" x1="23.9607" y1="8.91323" x2="23.9395" y2="34.2468" gradientUnits="userSpaceOnUse">
<stop stop-color="#5B2D8F"/>
<stop offset="1" stop-color="#9D248A"/>
</linearGradient>
<linearGradient id="paint4_linear_2084_106" x1="23.9606" y1="8.91326" x2="23.9394" y2="34.2468" gradientUnits="userSpaceOnUse">
<stop stop-color="#5B2D8F"/>
<stop offset="1" stop-color="#9D248A"/>
</linearGradient>
<linearGradient id="paint5_linear_2084_106" x1="23.9607" y1="8.91326" x2="23.9394" y2="34.2468" gradientUnits="userSpaceOnUse">
<stop stop-color="#5B2D8F"/>
<stop offset="1" stop-color="#9D248A"/>
</linearGradient>
<linearGradient id="paint6_linear_2084_106" x1="11.8098" y1="28.9951" x2="11.8098" y2="23.6855" gradientUnits="userSpaceOnUse">
<stop stop-color="#05AC4C"/>
<stop offset="1" stop-color="#4AB148"/>
</linearGradient>
<linearGradient id="paint7_linear_2084_106" x1="20.8163" y1="25.1742" x2="10.018" y2="25.1742" gradientUnits="userSpaceOnUse">
<stop stop-color="#57B347"/>
<stop offset="1" stop-color="#02753D"/>
</linearGradient>
<clipPath id="clip0_2084_106">
<rect width="164" height="42" fill="white" transform="translate(0 1)"/>
</clipPath>
</defs>
</svg>
