<svg width="198" height="44" viewBox="0 0 198 44" fill="none" xmlns="http://www.w3.org/2000/svg">
<rect width="198" height="44" fill="white"/>
<mask id="mask0_2031_2" style="mask-type:luminance" maskUnits="userSpaceOnUse" x="0" y="1" width="164" height="42">
<path d="M163.155 1H0V42.16H163.155V1Z" fill="white"/>
</mask>
<g mask="url(#mask0_2031_2)">
<path d="M56.0491 34.726C55.8631 34.4371 55.4793 34.2523 54.8943 34.1733C54.311 34.0943 53.5553 34.0809 52.6271 34.133C52.2551 34.1867 51.8916 34.1666 51.5332 34.0742C51.1748 33.9818 50.889 33.8373 50.6777 33.6391C50.4646 33.4408 50.3852 33.2375 50.4393 33.0259C50.4646 32.71 50.7707 32.4261 51.354 32.1758C51.9373 31.9255 52.7995 31.7877 53.9408 31.7608L55.8902 31.7222L56.2875 30.9309C56.394 30.6403 56.5124 30.2656 56.6459 29.8036C56.7778 29.3433 56.9384 28.8091 57.1227 28.2026C57.2292 27.8347 57.3882 27.3256 57.6012 26.6805C57.8125 26.0354 58.0391 25.3499 58.2775 24.6242C58.5159 23.9001 58.7289 23.2483 58.9132 22.667C59.0992 22.0874 59.2192 21.6791 59.2716 21.4423C59.3781 21.2054 59.5235 20.8022 59.7095 20.236C59.8955 19.6699 60.0747 19.0903 60.2472 18.4972C60.4196 17.9042 60.5312 17.4758 60.5853 17.212C61.2751 15.1288 61.7249 13.6538 61.9379 12.7835C62.1492 11.9133 62.2033 11.4664 62.0968 11.4395C61.9903 11.4395 61.7316 11.453 61.3208 11.4799C60.9099 11.5051 60.4653 11.5387 59.9885 11.5773C59.51 11.6176 59.0789 11.663 58.6951 11.7167C58.3096 11.7688 58.078 11.8209 57.9985 11.8747C57.8666 12.0595 57.6401 12.0779 57.3222 11.9335C57.0044 11.789 56.8049 11.584 56.7254 11.3203C56.6983 11.0834 56.6916 10.8868 56.7051 10.7272C56.7186 10.5693 56.7913 10.4517 56.9249 10.3727C57.1092 10.2131 57.4811 10.0367 58.0391 9.8385C58.5953 9.64026 59.2192 9.46218 59.909 9.30426C60.5988 9.14634 61.2481 9.02706 61.8584 8.9481C62.3098 8.89602 62.7596 8.7969 63.211 8.65242C63.6624 8.50794 64.0192 8.32986 64.2846 8.11818C64.5247 8.03922 64.7563 7.9737 64.9812 7.92162C65.2077 7.86786 65.4394 7.85442 65.6778 7.8813C65.8908 8.01234 66.2543 8.07954 66.7717 8.07954C67.289 8.07954 67.8402 8.0661 68.4235 8.03922C69.9079 7.90818 70.9241 7.89474 71.4668 8.00058C72.0112 8.10474 72.3747 8.3433 72.5607 8.71122C72.6943 9.21186 72.701 9.60834 72.581 9.8973C72.4609 10.1879 72.1769 10.319 71.7255 10.2938C71.4871 10.3459 71.0898 10.3912 70.5318 10.4315C69.9756 10.4702 69.3517 10.5038 68.6619 10.5307C66.8308 10.6886 65.8502 10.8734 65.7183 11.0834C65.6118 11.1892 65.5256 11.2951 65.4597 11.3992C65.392 11.5051 65.3058 11.6243 65.201 11.7554C65.2263 11.8612 65.1672 12.1905 65.0218 12.7449C64.8747 13.2976 64.6971 13.8638 64.4841 14.4451C64.3776 14.7861 64.2187 15.275 64.0073 15.9067C63.7943 16.54 63.5762 17.1919 63.3496 17.8639C63.1248 18.5359 62.9185 19.1423 62.7342 19.6833C62.5482 20.2226 62.4147 20.5855 62.3352 20.7703C62.2287 21.0071 62.1425 21.2642 62.0765 21.5414C62.0106 21.8186 61.9649 22.0219 61.9379 22.1546C61.5659 23.4448 61.2481 24.5318 60.9826 25.4155C60.7172 26.2991 60.4788 27.0753 60.2658 27.749C60.0544 28.421 59.8549 29.0594 59.6689 29.6659C59.4846 30.2723 59.2851 30.9443 59.0721 31.6819C59.0721 31.6819 59.2851 31.6617 59.7095 31.6231C60.1339 31.5827 60.6918 31.5374 61.3799 31.4836C62.6277 31.3526 63.5086 31.2736 64.0259 31.2467C64.5433 31.2215 64.8747 31.2535 65.0218 31.3459C65.1672 31.4383 65.2804 31.6029 65.3599 31.8398C65.8908 32.5521 65.9229 33.0729 65.4597 33.4022C64.9947 33.7315 64.0192 33.8827 62.5347 33.8558C61.1551 33.9095 60.1136 33.9549 59.4119 33.9952C58.7086 34.0339 58.2369 34.0943 57.9985 34.1733C57.7601 34.2523 57.6147 34.3833 57.5606 34.5681C57.5877 34.8587 57.4355 35.0167 57.1041 35.0419C56.771 35.0687 56.4211 34.9629 56.0491 34.726Z" fill="black"/>
<path d="M66.7125 36.5841C66.4471 36.5841 66.2543 36.5522 66.136 36.485C66.016 36.4195 65.9027 36.2951 65.7979 36.1103C65.7979 35.9255 65.8503 35.7676 65.9568 35.6349C66.0633 35.5039 66.2087 35.3459 66.3947 35.1611C66.6601 34.8974 66.9509 34.5748 67.2688 34.1918C67.5883 33.8104 67.8859 33.4223 68.1649 33.0259C68.4438 32.6311 68.6484 32.3152 68.782 32.0767C68.8868 31.7877 68.9866 31.445 69.0795 31.0502C69.1725 30.6537 69.2723 30.2186 69.3788 29.7448C69.3788 29.5331 69.3856 29.3433 69.3974 29.1719C69.4109 29.0006 69.4718 28.8611 69.5766 28.757C69.7896 28.5722 69.9942 28.4663 70.1937 28.4395C70.3932 28.4143 70.5792 28.5386 70.7517 28.8158C70.9241 29.093 71.0628 29.5869 71.1693 30.2975C71.2741 30.8788 71.2741 31.4047 71.1693 31.8801C71.0628 32.3539 70.8497 32.9335 70.5319 33.6189C70.4795 33.8037 70.3002 34.0876 69.9942 34.469C69.6899 34.852 69.3856 35.2065 69.0795 35.5375C68.7752 35.8667 68.5825 36.0314 68.503 36.0314C68.3965 36.0314 68.3035 36.0633 68.224 36.1305C68.1446 36.196 68.0516 36.2817 67.9451 36.3875C67.8402 36.4917 67.6813 36.5522 67.4683 36.5639C67.2569 36.5774 67.0033 36.5841 66.7125 36.5841Z" fill="black"/>
<path d="M82.7473 35.5559C82.2688 35.4249 81.885 35.3123 81.5925 35.2199C81.3017 35.1275 81.1563 35.0822 81.1563 35.0822C81.2087 34.9511 81.1884 34.8318 81.0954 34.726C81.0024 34.6202 80.8114 34.5546 80.5189 34.5278C80.1216 34.2909 79.7429 33.975 79.3844 33.5802C79.026 33.1838 78.7217 32.789 78.4697 32.3942C78.2178 31.9977 78.0386 31.6818 77.9321 31.445C77.7461 31.0502 77.6937 30.8049 77.7732 30.7142C77.8526 30.6218 78.0386 30.5092 78.3311 30.3765C78.6219 30.1665 78.8738 30.0674 79.0869 30.0808C79.2982 30.0942 79.5112 30.3244 79.7226 30.773C80.0675 31.3794 80.6389 31.8599 81.4336 32.2161C82.2299 32.5722 83.1311 32.7486 84.1404 32.7486C85.1481 32.7486 86.1287 32.5386 87.084 32.117C87.9598 31.7474 88.489 31.3324 88.6749 30.8721C88.8609 30.4101 88.729 29.8372 88.2776 29.1518C88.1982 28.9401 88.0984 28.7687 87.9784 28.6377C87.86 28.5066 87.6808 28.3353 87.4424 28.1236C87.204 27.9136 86.8321 27.5709 86.3282 27.0954C85.9309 26.9106 85.5657 26.7393 85.2343 26.5814C84.9029 26.4234 84.5513 26.2521 84.1793 26.0673C83.7549 25.8573 83.2511 25.5532 82.6678 25.1584C82.0845 24.7636 81.5401 24.3218 81.0363 23.8346C80.5324 23.3457 80.1605 22.8921 79.9221 22.4704C79.4977 22.0739 79.1984 21.5279 79.026 20.829C78.8535 20.1302 78.8079 19.3859 78.8874 18.5963C78.9668 17.805 79.1798 17.0927 79.5248 16.461C79.6837 16.0914 79.9627 15.6311 80.36 15.0767C80.7573 14.524 81.2087 13.9562 81.7126 13.3766C82.2164 12.797 82.6999 12.2694 83.1649 11.7957C83.6298 11.3202 84.0069 10.991 84.2994 10.8062C84.5107 10.5962 84.7372 10.3794 84.9756 10.1543C85.214 9.93087 85.3341 9.81831 85.3341 9.81831C85.3594 9.68727 85.4068 9.62007 85.4727 9.62007H85.5725C85.7043 9.54111 85.9968 9.41007 86.4466 9.22527C86.898 9.04047 87.3883 8.69775 87.9192 8.19711C89.6961 7.35375 91.162 6.74727 92.3168 6.37935C93.4698 6.00975 94.4048 5.82495 95.1217 5.82495C95.7844 5.85183 96.4015 6.01647 96.9713 6.31887C97.5411 6.62295 98.0263 7.00431 98.4236 7.46631C98.821 7.92663 99.061 8.47431 99.1405 9.10767C99.3248 9.73935 99.2589 10.4769 98.941 11.3202C98.6231 12.1636 98.1717 12.9616 97.5884 13.7126C97.0051 14.4635 96.3812 15.0246 95.7185 15.3926C94.9746 15.7101 94.4318 15.8142 94.0869 15.7101C93.742 15.6042 93.5831 15.3002 93.6085 14.7995C93.6085 14.5895 93.6829 14.3392 93.8283 14.0486C93.9737 13.7596 94.3777 13.2455 95.0422 12.5063C95.8909 11.2682 96.388 10.3122 96.5334 9.64023C96.6788 8.96823 96.4878 8.59359 95.9569 8.51463C95.798 8.46087 95.5055 8.46759 95.0811 8.53311C94.6567 8.60031 94.1935 8.67927 93.6896 8.76999C93.1841 8.86239 92.753 8.96151 92.3962 9.06735C92.0378 9.17319 91.8586 9.25215 91.8586 9.30423V9.42351C91.8586 9.50247 91.8062 9.52935 91.6996 9.50247C91.6455 9.50247 91.441 9.60159 91.0825 9.79815C90.7241 9.99639 90.2862 10.2534 89.7688 10.5693C89.2532 10.8868 88.7426 11.2094 88.237 11.5386C87.7332 11.8679 87.3021 12.1518 86.9453 12.3887C86.5869 12.6256 86.3942 12.7701 86.3671 12.8238C86.3147 13.1128 86.0104 13.3766 85.4524 13.6134C84.9215 13.931 84.4448 14.3846 84.0204 14.9776C83.596 15.5706 83.1175 16.3149 82.5883 17.212C82.1369 17.8185 81.8191 18.4703 81.6331 19.1692C81.4471 19.8681 81.4471 20.4275 81.6331 20.8492C81.765 21.2709 82.164 21.7715 82.8267 22.3511C83.4895 22.9307 84.3382 23.5238 85.373 24.1302C86.2741 24.6309 87.0975 25.1315 87.8397 25.6322C88.582 26.1345 89.1991 26.6217 89.6894 27.0954C90.1814 27.5709 90.506 27.9791 90.6649 28.3218C90.9828 28.7687 91.2026 29.2442 91.3209 29.7448C91.441 30.2454 91.4934 30.7259 91.4798 31.1879C91.468 31.6482 91.4071 32.0514 91.3023 32.3942C91.1163 32.8158 90.8036 33.2577 90.3657 33.718C89.9295 34.18 89.5507 34.3967 89.2329 34.3698C88.9404 34.4488 88.7223 34.5412 88.5752 34.647C88.4298 34.7529 88.2641 34.8453 88.0781 34.9242C87.8921 35.0301 87.4881 35.141 86.8659 35.2602C86.242 35.3778 85.5522 35.4635 84.7964 35.5173C84.0407 35.5694 83.3576 35.5828 82.7473 35.5559Z" fill="black"/>
<path d="M96.0363 32.1556C95.9298 31.9456 95.7641 31.7675 95.5392 31.623C95.3127 31.4786 95.2011 31.3526 95.2011 31.2467C95.2011 31.1409 95.1741 31.0098 95.1216 30.8519C95.0675 30.694 94.9881 30.5613 94.8832 30.4571C94.7497 30.2975 94.77 29.9296 94.9424 29.35C95.1149 28.7687 95.3989 28.0514 95.7979 27.1946C96.1952 26.3378 96.6467 25.449 97.1505 24.5267C97.3618 24.315 97.5749 24.0378 97.7862 23.6951C97.9993 23.3524 98.1582 23.129 98.2647 23.0231C98.2647 22.919 98.3036 22.8198 98.383 22.7274C98.4642 22.635 98.5555 22.588 98.662 22.588L98.7415 22.2335C98.7685 22.1008 98.9139 21.8774 99.1794 21.5615C99.4448 21.244 99.7627 20.8946 100.135 20.5132C100.507 20.1302 100.897 19.7622 101.308 19.4061C101.719 19.0499 102.057 18.7929 102.322 18.635C102.88 18.2654 103.457 18.0621 104.054 18.0218C104.651 17.9831 105.161 18.1343 105.586 18.477C105.665 18.556 105.81 18.6938 106.023 18.892C106.235 19.0902 106.487 19.3137 106.779 19.564C107.072 19.8143 107.349 20.0579 107.614 20.2948L109.087 21.6002L108.37 23.5775C108.025 24.6309 107.939 25.5532 108.111 26.3445C108.284 27.1358 108.543 27.8212 108.887 28.4008C109.021 28.6898 109.259 28.9468 109.604 29.1719C109.949 29.3954 110.308 29.5331 110.678 29.5869C110.891 29.6138 111.089 29.6927 111.275 29.8238C111.461 29.9548 111.554 30.1665 111.554 30.4571C111.554 30.8519 111.481 31.1476 111.336 31.3458C111.189 31.5441 110.984 31.6684 110.719 31.7222C109.843 31.8263 109.021 31.655 108.252 31.2081C107.483 30.7595 106.779 29.9296 106.142 28.7166C106.037 28.5587 105.897 28.2614 105.724 27.8279C105.552 27.3928 105.454 27.1089 105.427 26.9778C105.32 27.1089 105.141 27.3256 104.889 27.6297C104.637 27.9321 104.432 28.1639 104.272 28.3218C102.388 30.2186 100.77 31.4786 99.4178 32.0968C98.0652 32.7167 96.9375 32.7369 96.0363 32.1556ZM97.7068 29.5869C97.7609 29.7179 98.0449 29.6793 98.5623 29.4676C99.0796 29.2576 99.6697 28.888 100.334 28.3605C101.235 27.5961 102.091 26.825 102.901 26.0488C103.709 25.271 104.392 24.4864 104.948 23.6951L105.824 22.2722C105.558 21.6657 105.288 21.2574 105.009 21.0474C104.73 20.8358 104.485 20.7299 104.272 20.7299C103.927 20.7299 103.45 21.0138 102.84 21.58C102.229 22.1478 101.567 22.919 100.851 23.8934C100.135 24.8694 99.4313 25.9883 98.7415 27.2534C98.4507 27.8078 98.2055 28.3353 98.006 28.8359C97.8065 29.3366 97.7068 29.5869 97.7068 29.5869Z" fill="black"/>
<path d="M113.782 32.117C113.544 31.9322 113.344 31.7289 113.185 31.5038C113.026 31.2803 112.986 30.904 113.065 30.3765C113.145 29.639 113.251 28.9871 113.385 28.421C113.517 27.8531 113.676 27.2013 113.862 26.4638C113.914 26.1462 114.068 25.607 114.32 24.8426C114.572 24.0782 114.869 23.2482 115.214 22.3511C115.559 21.4557 115.918 20.6056 116.288 19.8009C116.66 18.9978 116.978 18.3981 117.243 18.0033C117.481 17.8185 117.794 17.7328 118.178 17.7462C118.564 17.758 118.861 17.8706 119.074 18.0822C119.365 18.3191 119.433 18.7341 119.272 19.3271C119.113 19.9202 118.716 20.8492 118.078 22.1142C117.84 22.6938 117.635 23.1626 117.463 23.517C117.29 23.8732 117.197 24.1101 117.184 24.2294C117.17 24.3486 117.257 24.3554 117.443 24.2495C117.601 23.9589 117.894 23.6229 118.318 23.2415C118.743 22.8585 119.192 22.4838 119.671 22.1142C120.148 21.7446 120.599 21.4154 121.023 21.1264C121.448 20.8358 121.74 20.651 121.899 20.572C122.111 20.441 122.356 20.3284 122.635 20.236C122.914 20.1436 123.106 20.0714 123.211 20.0193C123.822 19.7286 124.459 19.6228 125.122 19.7018C125.785 19.7824 126.195 20.0193 126.354 20.4141C126.381 20.6258 126.468 20.7837 126.613 20.8878C126.76 20.9937 126.833 21.0474 126.833 21.0474C126.939 21.0474 126.999 21.0861 127.012 21.165C127.026 21.244 127.032 21.2843 127.032 21.2843C127.032 21.4691 126.878 21.627 126.574 21.7581C126.268 21.8908 125.905 21.9698 125.48 21.995C125.135 22.0218 124.829 22.0874 124.564 22.1932C124.3 22.299 123.981 22.4301 123.61 22.588C122.601 23.1693 121.659 23.722 120.785 24.2495C119.909 24.777 119.047 25.5011 118.198 26.4234C118.012 26.6351 117.821 26.8653 117.622 27.1156C117.422 27.3659 117.218 27.6633 117.005 28.0043C116.873 28.137 116.739 28.4277 116.607 28.8746C116.474 29.3231 116.362 29.7515 116.269 30.1598C116.176 30.568 116.129 30.8116 116.129 30.8906C116.129 30.8906 116.09 31.0166 116.011 31.2669C115.931 31.5172 115.797 31.7608 115.611 31.9977C115.294 32.4194 115.015 32.6512 114.776 32.6898C114.538 32.7302 114.207 32.5386 113.782 32.117Z" fill="black"/>
<path d="M130.772 32.4328C130.559 32.4865 130.28 32.505 129.935 32.4932C129.59 32.4798 129.293 32.4395 129.041 32.374C128.789 32.3084 128.662 32.2362 128.662 32.1556C128.662 32.0245 128.596 31.959 128.464 31.959C128.464 31.959 128.378 31.8868 128.206 31.7406C128.033 31.5961 127.827 31.4718 127.589 31.366C127.35 30.9964 127.217 30.5881 127.191 30.1396C127.164 29.6927 127.296 28.94 127.589 27.8867C127.641 27.1744 127.893 26.3646 128.344 25.4557C128.796 24.5452 129.345 23.6363 129.996 22.7274C130.645 21.8185 131.329 21.0004 132.045 20.2763C132.761 19.5505 133.411 19.018 133.995 18.6752C134.365 18.3056 134.83 18.1074 135.388 18.0822C135.944 18.0553 136.462 18.1746 136.938 18.4367C137.204 18.5694 137.483 18.7996 137.775 19.1288C138.066 19.4581 138.338 19.8076 138.59 20.1772C138.842 20.5468 139.048 20.9012 139.207 21.244C139.287 21.5346 139.339 21.7916 139.366 22.0151C139.393 22.2402 139.405 22.509 139.405 22.8265C139.405 23.1424 139.366 23.6161 139.287 24.2495C139.153 24.7232 139.042 25.2709 138.949 25.8892C138.856 26.5091 138.808 27.0702 138.808 27.5708C138.756 28.0715 138.815 28.4276 138.987 28.6376C139.16 28.8493 139.419 28.8611 139.764 28.678C140.081 28.5184 140.401 28.4663 140.719 28.5184C141.037 28.5721 141.275 28.6964 141.436 28.8947C141.595 29.0929 141.633 29.3752 141.554 29.7448C141.502 30.0875 141.316 30.4168 140.998 30.7326C140.678 31.0501 140.301 31.3189 139.863 31.544C139.425 31.7675 139.008 31.88 138.61 31.88C138.318 31.88 138.039 31.7221 137.775 31.4046C137.51 31.0888 137.27 30.694 137.058 30.2185C136.845 29.7448 136.661 29.271 136.5 28.7956L136.262 27.8867L134.63 29.3886C134.286 29.7582 133.947 30.0942 133.616 30.3966C133.285 30.7007 133.08 30.9174 133.001 31.0501C132.867 31.287 132.615 31.5172 132.243 31.7406C131.873 31.9657 131.381 32.1959 130.772 32.4328ZM131.21 29.6255C131.66 29.3617 132.138 28.9938 132.642 28.5184C133.146 28.0446 133.636 27.5238 134.113 26.9576C134.592 26.3915 135.016 25.8438 135.388 25.3163C135.838 24.7098 136.176 24.1705 136.402 23.6951C136.627 23.2213 136.793 22.7593 136.899 22.3124C136.793 22.0218 136.627 21.7127 136.402 21.3834C136.176 21.0541 135.971 20.876 135.785 20.8492C135.281 20.8492 134.723 21.165 134.113 21.7984C133.504 22.43 132.894 23.1692 132.284 24.0126C132.177 24.1436 132.039 24.3553 131.866 24.6443C131.694 24.9349 131.528 25.2054 131.369 25.4557C131.21 25.706 131.104 25.8707 131.05 25.9496C130.97 26.0555 130.831 26.331 130.632 26.7796C130.434 27.2281 130.241 27.6817 130.055 28.1437C129.869 28.604 129.776 28.9148 129.776 29.0728C129.776 29.2307 129.797 29.402 129.837 29.5868C129.876 29.7716 130.003 29.8892 130.214 29.943C130.427 29.9951 130.759 29.8892 131.21 29.6255Z" fill="black"/>
<path d="M147.204 33.2241C146.462 33.251 145.779 33.1586 145.155 32.9469C144.531 32.7369 144.007 32.4261 143.583 32.0179C143.158 31.6096 142.893 31.1543 142.788 30.6537C142.682 30.3379 142.641 30.1144 142.668 29.9817C142.695 29.8507 142.802 29.7448 142.986 29.6659C143.172 29.6927 143.351 29.7583 143.524 29.8641C143.696 29.9683 143.916 30.0875 144.18 30.2186C144.579 30.5613 145.055 30.7528 145.613 30.7931C146.17 30.8318 146.673 30.7595 147.125 30.5747C147.576 30.3899 147.828 30.1396 147.881 29.8238C147.881 29.7179 147.835 29.5214 147.742 29.2307C147.649 28.9401 147.536 28.6377 147.404 28.3219C146.714 27.3458 146.229 26.3781 145.952 25.4155C145.673 24.4528 145.534 23.6162 145.534 22.9055C145.534 22.457 145.686 21.9765 145.99 21.4624C146.296 20.9483 146.701 20.4931 147.204 20.0983C147.708 19.6228 148.264 19.1827 148.875 18.7727C149.485 18.3645 150.102 18.0151 150.726 17.7261C151.348 17.4355 151.899 17.2389 152.376 17.1331C152.721 17.1331 153.146 17.165 153.649 17.2322C154.153 17.2977 154.498 17.3968 154.684 17.5279C155.002 17.6858 155.301 18.0285 155.58 18.556C155.857 19.0835 155.998 19.5707 155.998 20.0193C155.998 20.2041 155.925 20.4477 155.778 20.7501C155.633 21.0542 155.453 21.3902 155.242 21.7581C155.136 22.0219 155.022 22.2722 154.904 22.5091C154.784 22.7476 154.711 22.9307 154.684 23.0635C154.525 23.3793 154.307 23.5238 154.028 23.4986C153.749 23.4717 153.477 23.3272 153.212 23.0635C152.948 22.7997 152.762 22.4839 152.655 22.1143C152.603 21.7195 152.621 21.3902 152.714 21.1264C152.807 20.8627 152.921 20.6123 153.053 20.3755C153.239 20.1638 153.325 20.0193 153.311 19.9403C153.298 19.8614 153.173 19.8211 152.934 19.8211C152.748 19.8211 152.424 19.9202 151.959 20.1184C151.495 20.315 151.003 20.5787 150.486 20.908C149.97 21.2373 149.512 21.5867 149.115 21.9563C148.691 22.378 148.418 22.714 148.298 22.9643C148.18 23.2147 148.119 23.5507 148.119 23.9723C148.119 24.3419 148.205 24.7888 148.378 25.3163C148.55 25.8439 148.729 26.2252 148.915 26.4638C148.915 26.489 149.002 26.6536 149.174 26.9577C149.347 27.2601 149.539 27.5961 149.751 27.9657C150.599 29.7583 150.792 31.0619 150.327 31.8801C149.864 32.6966 148.822 33.1451 147.204 33.2241Z" fill="black"/>
<path d="M23.9609 42.16C35.3994 42.16 44.6722 32.946 44.6722 21.58C44.6722 10.214 35.3994 1 23.9609 1C12.5223 1 3.24951 10.214 3.24951 21.58C3.24951 32.946 12.5223 42.16 23.9609 42.16Z" fill="url(#paint0_linear_2031_2)"/>
<path fill-rule="evenodd" clip-rule="evenodd" d="M26.4242 25.0357C26.4242 25.0357 28.6357 25.0223 30.629 24.0428C37.982 20.4308 40.5722 28.814 35.899 29.15C35.899 29.15 34.5904 29.2895 33.7924 27.8732C33.7924 27.8732 35.3411 28.8577 36.4028 27.4801C36.4028 27.4801 36.6564 25.1449 33.8921 24.6056C33.8921 24.6056 32.3282 24.3587 30.6392 24.898C30.6392 24.898 28.6255 25.575 26.4242 25.0357Z" fill="url(#paint1_linear_2031_2)"/>
<path fill-rule="evenodd" clip-rule="evenodd" d="M36.4028 27.4801C36.4028 27.4801 38.9186 24.9769 35.2464 23.2784C35.2464 23.2784 33.2716 22.7072 30.629 24.0428C30.629 24.0428 28.6018 25.0424 26.4242 25.0357C26.4242 25.0357 28.377 25.5868 30.2993 24.9937C30.2993 24.9937 36.2422 22.9811 36.4028 27.4801Z" fill="url(#paint2_linear_2031_2)"/>
<path fill-rule="evenodd" clip-rule="evenodd" d="M25.1275 22.3444C25.1275 22.3444 28.7169 17.0893 24.2043 11.6747C24.2043 11.6747 20.4729 14.6953 22.4612 20.4174C22.4612 20.4174 22.8129 21.7329 25.2509 24.8005C25.2509 24.8005 28.8217 28.8981 24.179 34.2472C24.179 34.2472 19.4923 30.5226 23.2322 25.1097C23.2322 25.1097 21.4434 28.8325 24.0961 32.3857C24.0961 32.3857 27.8749 28.5167 23.6734 23.6245C23.6734 23.6245 18.1752 18.3981 21.9709 11.6747L23.9879 8.91278C23.9879 8.91278 27.3592 11.7251 27.4404 16.5669C27.4404 16.5669 27.8242 19.8647 25.1275 22.3444Z" fill="url(#paint3_linear_2031_2)"/>
<path fill-rule="evenodd" clip-rule="evenodd" d="M26.7354 23.6934C26.7354 23.6934 28.0795 18.4972 33.7011 17.469C33.7011 17.469 33.0164 22.4654 28.82 23.6934C28.82 23.6934 35.1315 23.5859 35.189 15.9755C35.189 15.9755 27.6399 16.5736 26.7354 23.6934Z" fill="url(#paint4_linear_2031_2)"/>
<path fill-rule="evenodd" clip-rule="evenodd" d="M21.4975 23.6934C21.4975 23.6934 20.1517 18.4972 14.5318 17.469C14.5318 17.469 15.2165 22.4654 19.4129 23.6934C19.4129 23.6934 13.1014 23.5859 13.0422 15.9755C13.0422 15.9755 20.593 16.5736 21.4975 23.6934Z" fill="url(#paint5_linear_2031_2)"/>
<path fill-rule="evenodd" clip-rule="evenodd" d="M21.4975 25.0357C21.4975 25.0357 19.286 25.0223 17.2927 24.0428C9.9397 20.4308 7.34952 28.814 12.0227 29.15C12.0227 29.15 13.3313 29.2895 14.1293 27.8732C14.1293 27.8732 12.5806 28.8577 11.5188 27.4801C11.5188 27.4801 11.2652 25.1449 14.0296 24.6056C14.0296 24.6056 15.5935 24.3587 17.2825 24.898C17.2825 24.898 19.2962 25.575 21.4975 25.0357Z" fill="url(#paint6_linear_2031_2)"/>
<path fill-rule="evenodd" clip-rule="evenodd" d="M11.5188 27.4801C11.5188 27.4801 9.00305 24.9769 12.6753 23.2784C12.6753 23.2784 14.6501 22.7072 17.2927 24.0428C17.2927 24.0428 19.3198 25.0424 21.4975 25.0357C21.4975 25.0357 19.5447 25.5868 17.6223 24.9937C17.6223 24.9937 11.6795 22.9811 11.5188 27.4801Z" fill="url(#paint7_linear_2031_2)"/>
</g>
<defs>
<linearGradient id="paint0_linear_2031_2" x1="33.6825" y1="39.64" x2="10.7198" y2="6.62229" gradientUnits="userSpaceOnUse">
<stop stop-color="#FCE7FF"/>
<stop offset="1" stop-color="#DBF8FF"/>
</linearGradient>
<linearGradient id="paint1_linear_2031_2" x1="36.1119" y1="28.9951" x2="36.1119" y2="23.6855" gradientUnits="userSpaceOnUse">
<stop stop-color="#05AC4C"/>
<stop offset="1" stop-color="#4AB148"/>
</linearGradient>
<linearGradient id="paint2_linear_2031_2" x1="27.1039" y1="25.1742" x2="37.9036" y2="25.1742" gradientUnits="userSpaceOnUse">
<stop stop-color="#57B347"/>
<stop offset="1" stop-color="#02753D"/>
</linearGradient>
<linearGradient id="paint3_linear_2031_2" x1="23.9609" y1="8.91323" x2="23.9396" y2="34.2468" gradientUnits="userSpaceOnUse">
<stop stop-color="#5B2D8F"/>
<stop offset="1" stop-color="#9D248A"/>
</linearGradient>
<linearGradient id="paint4_linear_2031_2" x1="23.9609" y1="8.91326" x2="23.9396" y2="34.2468" gradientUnits="userSpaceOnUse">
<stop stop-color="#5B2D8F"/>
<stop offset="1" stop-color="#9D248A"/>
</linearGradient>
<linearGradient id="paint5_linear_2031_2" x1="23.9609" y1="8.91326" x2="23.9397" y2="34.2468" gradientUnits="userSpaceOnUse">
<stop stop-color="#5B2D8F"/>
<stop offset="1" stop-color="#9D248A"/>
</linearGradient>
<linearGradient id="paint6_linear_2031_2" x1="11.81" y1="28.9951" x2="11.81" y2="23.6855" gradientUnits="userSpaceOnUse">
<stop stop-color="#05AC4C"/>
<stop offset="1" stop-color="#4AB148"/>
</linearGradient>
<linearGradient id="paint7_linear_2031_2" x1="20.8165" y1="25.1742" x2="10.0181" y2="25.1742" gradientUnits="userSpaceOnUse">
<stop stop-color="#57B347"/>
<stop offset="1" stop-color="#02753D"/>
</linearGradient>
</defs>
</svg>
